<svg width="58" height="50" viewBox="0 0 58 50" fill="none" xmlns="http://www.w3.org/2000/svg">
<g clip-path="url(#clip0_999:2377)">
<path d="M-0.000932264 9.95068H8.05672V10.472C8.05672 18.4105 8.05672 26.3491 8.05672 34.2876C8.05672 34.6626 8.0751 35.0284 8.11185 35.4034C8.24967 36.6838 8.98469 37.4521 10.2618 37.5984C11.1806 37.699 12.0993 37.6167 12.9905 37.324C13.3213 37.2143 13.4591 37.0588 13.4591 36.6747C13.4407 29.5227 13.4499 22.3707 13.4499 15.2095V14.6791H21.48V42.5188C21.3698 42.528 21.2595 42.5463 21.1401 42.5463C19.1739 42.5463 17.2169 42.5371 15.2507 42.5554C14.9751 42.5554 14.8465 42.4731 14.7638 42.217C14.6352 41.8329 14.4698 41.4579 14.3411 41.1012C11.4654 43.0035 8.35073 43.3054 5.10746 42.6286C2.44301 42.0707 0.908655 40.2964 0.384953 37.699C0.146072 36.5375 0.0358187 35.3302 0.026631 34.1413C-0.01012 26.2027 -0.000932264 18.2733 -0.000932264 10.3531V9.95068Z" fill="#171191"/>
<path d="M25.2925 13.9839H13.5781V9.93232H25.2833V0H33.4237V9.92317H39.2763V14.0113H33.442V14.4961C33.442 21.0536 33.4329 27.6111 33.4604 34.1595C33.4604 34.9552 33.6074 35.7692 33.7912 36.5466C33.929 37.1685 34.37 37.6075 35.0315 37.7081C36.2167 37.8818 37.4111 38.019 38.5964 38.1654C38.7342 38.1836 38.8812 38.1654 39.0466 38.1654V42.4822C38.9914 42.5005 38.9271 42.5279 38.8628 42.5279C36.5567 42.5096 34.2414 42.5462 31.9353 42.4547C30.2539 42.3907 28.6736 41.8694 27.3965 40.7079C26.248 39.6653 25.6968 38.3025 25.4763 36.8209C25.3568 36.0252 25.3109 35.2113 25.3109 34.3973C25.3017 27.7757 25.3017 21.1542 25.3017 14.5326V13.9839H25.2925Z" fill="#E23E00"/>
<path d="M50.5682 34.4613H56.5494C56.4943 35.1106 56.4667 35.76 56.3749 36.391C56.0717 38.4854 55.254 40.2963 53.3705 41.4669C52.4149 42.0614 51.3767 42.4181 50.2742 42.601C48.5101 42.8937 46.7369 42.9669 44.982 42.537C42.4003 41.8968 40.627 40.2597 39.4051 37.9733C38.2934 35.888 37.7697 33.629 37.4757 31.3151C37.099 28.3793 37.0622 25.4252 37.3195 22.4803C37.5675 19.7 38.0912 16.9745 39.451 14.4869C41.2243 11.2401 44.0081 9.64876 47.6924 9.53901C49.1625 9.49328 50.6049 9.63047 51.9923 10.1335C54.7578 11.1395 56.283 13.1973 56.8526 15.9959C57.0639 17.0477 57.1282 18.1178 57.2661 19.2244H50.118C50.1088 19.0872 50.0996 18.9409 50.0904 18.7854C50.0077 17.8617 49.971 16.9288 49.8332 16.0142C49.7229 15.2643 49.3095 14.6972 48.501 14.56C47.6281 14.4137 46.9023 14.7795 46.4521 15.5569C46.0294 16.2886 45.8916 17.1026 45.8273 17.9257C45.3679 23.2485 45.4047 28.5805 45.763 33.9034C45.8181 34.7448 45.9835 35.5953 46.25 36.391C46.6358 37.5068 47.6189 37.9733 48.7858 37.7629C49.4381 37.644 49.9342 37.2873 50.1272 36.6471C50.3109 36.0252 50.412 35.385 50.5406 34.7448C50.5406 34.6533 50.5498 34.5619 50.5682 34.4613Z" fill="#171191"/>
<path d="M3.6096 48.683C3.6096 48.8111 3.60041 48.9483 3.58204 49.1037C3.56366 49.2592 3.50853 49.3964 3.42584 49.5336C3.34316 49.6708 3.21453 49.7805 3.03996 49.872C2.86539 49.9634 2.6357 50.0092 2.3325 50.0092C2.06606 50.0092 1.84555 49.9634 1.68936 49.872C1.53317 49.7805 1.41373 49.6708 1.33104 49.5336C1.24835 49.3964 1.19322 49.2592 1.16566 49.1037C1.13809 48.9483 1.12891 48.8111 1.12891 48.683V46.0308H1.56992V48.6007C1.56992 48.7105 1.57911 48.8294 1.58829 48.9483C1.59748 49.0672 1.63423 49.1861 1.68017 49.2867C1.72611 49.3873 1.8088 49.4696 1.90987 49.5427C2.01093 49.6068 2.15793 49.6433 2.34169 49.6433C2.54382 49.6433 2.7092 49.6068 2.81945 49.5427C2.92971 49.4787 3.0124 49.3964 3.05833 49.2867C3.11346 49.1861 3.14102 49.0763 3.15021 48.9483C3.1594 48.8294 3.1594 48.7105 3.1594 48.6007V46.0308H3.60041V48.683H3.6096Z" fill="#171191"/>
<path d="M4.48242 47.2378H4.86831V47.8598H4.8775C4.89587 47.8049 4.92343 47.7317 4.96019 47.6586C4.99694 47.5854 5.04287 47.5031 5.10719 47.4299C5.1715 47.3567 5.25419 47.2927 5.35526 47.247C5.45632 47.1921 5.58495 47.1738 5.73196 47.1738C5.84221 47.1738 5.94327 47.1921 6.03515 47.2378C6.12703 47.2836 6.19134 47.3476 6.25566 47.4208C6.31079 47.4939 6.35672 47.5854 6.38429 47.686C6.41185 47.7866 6.43023 47.8963 6.43023 48.0061V49.9359H6.04434V48.4359C6.04434 48.317 6.04434 48.2073 6.03515 48.0976C6.03515 47.9878 6.01678 47.8963 5.98921 47.814C5.96165 47.7317 5.9249 47.6677 5.86977 47.622C5.81465 47.5762 5.74114 47.5488 5.64008 47.5488C5.51145 47.5488 5.4012 47.5945 5.30013 47.6768C5.20825 47.7683 5.12556 47.8689 5.06125 47.9969C4.99694 48.125 4.951 48.2622 4.91425 48.4085C4.8775 48.5548 4.86831 48.692 4.86831 48.8109V49.9267H4.48242V47.2378Z" fill="#171191"/>
<path d="M7.28516 46.0215H7.79967V46.5336H7.28516V46.0215ZM7.34028 47.2379H7.72617V49.9359H7.34028V47.2379Z" fill="#171191"/>
<path d="M8.24023 47.238H8.66287L9.4622 49.3781H9.47139L10.1697 47.238H10.5831L9.66434 49.9452H9.26926L8.24023 47.238Z" fill="#171191"/>
<path d="M12.8169 49.9267C12.6424 49.9816 12.4402 50.009 12.1922 50.009C11.7695 50.009 11.448 49.881 11.2183 49.6341C10.9886 49.3871 10.8691 49.0121 10.8691 48.5C10.8691 48.2988 10.8875 48.1158 10.9335 47.9512C10.9794 47.7866 11.0437 47.6494 11.1264 47.5305C11.2183 47.4116 11.3285 47.3293 11.4572 47.2653C11.5858 47.2013 11.7512 47.1738 11.9349 47.1738C12.0911 47.1738 12.2289 47.2013 12.3484 47.247C12.4678 47.3019 12.5689 47.3659 12.6424 47.4665C12.7251 47.558 12.7802 47.6677 12.8169 47.7957C12.8537 47.9238 12.8721 48.061 12.8721 48.2073V48.3353H11.3102V48.4908C11.3102 48.5914 11.3193 48.7103 11.3469 48.8475C11.3745 48.9847 11.4204 49.1127 11.4939 49.2408C11.5674 49.3597 11.6685 49.4694 11.7879 49.5517C11.9165 49.634 12.0727 49.6798 12.2657 49.6798C12.3392 49.6798 12.4035 49.6798 12.4586 49.6706C12.5137 49.6615 12.5597 49.6615 12.5964 49.6523C12.6332 49.6432 12.6699 49.6341 12.7067 49.6341C12.7434 49.6249 12.771 49.6158 12.7986 49.6158V49.9267H12.8169ZM12.4402 48.0152C12.4402 47.9695 12.4311 47.9146 12.4127 47.8598C12.3943 47.8049 12.3667 47.7409 12.33 47.6951C12.2932 47.6403 12.2381 47.5945 12.1738 47.558C12.1095 47.5214 12.0268 47.5031 11.9257 47.5031C11.8247 47.5031 11.7328 47.5214 11.6685 47.558C11.6042 47.5945 11.5398 47.6403 11.5031 47.6951C11.4572 47.75 11.4296 47.8049 11.402 47.8598C11.3837 47.9146 11.3653 47.9695 11.3561 48.0152H12.4402Z" fill="#171191"/>
<path d="M13.5605 47.238H13.9464V47.7593H13.9556C13.974 47.7136 14.0016 47.6587 14.0475 47.5947C14.0842 47.5306 14.1394 47.4666 14.2129 47.4026C14.2772 47.3386 14.3691 47.2837 14.4793 47.2471C14.5896 47.2014 14.7182 47.1831 14.8744 47.1831V47.5947C14.7182 47.5947 14.5804 47.6221 14.4701 47.6861C14.3599 47.7501 14.2588 47.8325 14.1853 47.9422C14.1118 48.052 14.0567 48.18 14.0107 48.3355C13.974 48.491 13.9556 48.6556 13.9556 48.8385V49.9543H13.5697V47.238H13.5605Z" fill="#171191"/>
<path d="M16.1971 48.4177C16.2706 48.4542 16.3441 48.4908 16.4176 48.5366C16.4911 48.5823 16.5554 48.628 16.6197 48.6829C16.684 48.7378 16.73 48.8109 16.7667 48.8932C16.8035 48.9755 16.831 49.0762 16.831 49.1951C16.831 49.4694 16.7392 49.6706 16.5646 49.8078C16.39 49.945 16.1419 50.009 15.8204 50.009C15.6458 50.009 15.4896 49.9907 15.3518 49.9633C15.2232 49.9359 15.1313 49.9084 15.0762 49.8901V49.5426C15.0945 49.5517 15.1221 49.5609 15.168 49.5792C15.214 49.5975 15.2691 49.6066 15.3334 49.6249C15.3977 49.6432 15.4712 49.6523 15.5447 49.6706C15.6182 49.6798 15.7009 49.6889 15.7744 49.6889C15.8663 49.6889 15.9582 49.6798 16.0409 49.6615C16.1236 49.6432 16.1879 49.6158 16.2522 49.5883C16.3073 49.5517 16.3533 49.506 16.39 49.4511C16.4268 49.3963 16.4451 49.3322 16.4451 49.2499C16.4451 49.1859 16.4268 49.1219 16.39 49.067C16.3533 49.0121 16.3073 48.9756 16.2614 48.9298C16.2063 48.8932 16.1603 48.8567 16.096 48.8292C16.0409 48.8018 15.9949 48.7743 15.949 48.7561L15.7009 48.628C15.6366 48.5914 15.5723 48.5548 15.4988 48.5183C15.4253 48.4817 15.361 48.4268 15.2967 48.3719C15.2324 48.3171 15.1864 48.253 15.1405 48.1707C15.1037 48.0976 15.0762 47.9969 15.0762 47.8872C15.0762 47.6677 15.1589 47.4939 15.3151 47.3659C15.4712 47.2379 15.7009 47.1738 16.0041 47.1738C16.1511 47.1738 16.2706 47.183 16.3808 47.2104C16.4911 47.2287 16.5738 47.2561 16.6381 47.2653V47.622C16.5921 47.6037 16.5095 47.5762 16.39 47.5488C16.2706 47.5122 16.1419 47.5031 16.0041 47.5031C15.8388 47.5031 15.7009 47.5397 15.6091 47.6037C15.508 47.6677 15.4621 47.7592 15.4621 47.8506C15.4621 47.9055 15.4804 47.9512 15.508 47.9969C15.5356 48.0335 15.5815 48.0701 15.6274 48.1067C15.6734 48.1341 15.7285 48.1707 15.7836 48.1982C15.8388 48.2256 15.9031 48.253 15.949 48.2805L16.1971 48.4177Z" fill="#171191"/>
<path d="M17.3828 46.0215H17.8973V46.5336H17.3828V46.0215ZM17.4471 47.2379H17.833V49.9359H17.4471V47.2379Z" fill="#171191"/>
<path d="M20.2032 49.4787H20.194C20.1756 49.5245 20.1573 49.5793 20.1205 49.6433C20.0838 49.7074 20.0378 49.7622 19.9827 49.8171C19.9276 49.872 19.8541 49.9177 19.7714 49.9543C19.6887 49.9909 19.5968 50.0092 19.4866 50.0092C19.3212 50.0092 19.1834 49.9726 19.0639 49.9086C18.9445 49.8446 18.8526 49.7531 18.7791 49.6342C18.7056 49.5153 18.6505 49.369 18.6137 49.1952C18.577 49.0214 18.5586 48.8294 18.5586 48.619C18.5586 48.4361 18.577 48.2623 18.6137 48.0886C18.6505 47.9148 18.7056 47.7593 18.7791 47.6313C18.8526 47.4941 18.9445 47.3935 19.0639 47.3112C19.1834 47.2289 19.3212 47.1923 19.4866 47.1923C19.606 47.1923 19.7071 47.2106 19.7898 47.2472C19.8724 47.2837 19.9459 47.3203 20.0011 47.3752C20.0562 47.4301 20.1021 47.485 20.1297 47.5398C20.1573 47.5947 20.1848 47.6496 20.2032 47.7044H20.2124V46.0491H20.5983V49.9634H20.2124V49.4787H20.2032ZM18.9996 48.683C18.9996 48.7745 19.0088 48.866 19.018 48.9849C19.0272 49.0946 19.0547 49.2044 19.0915 49.305C19.1282 49.4056 19.1834 49.497 19.2569 49.5702C19.3304 49.6433 19.4314 49.6799 19.5601 49.6799C19.6703 49.6799 19.7622 49.6433 19.8449 49.5793C19.9276 49.5153 19.9919 49.4239 20.047 49.3141C20.1021 49.2044 20.1389 49.0946 20.1573 48.9666C20.1848 48.8385 20.194 48.7196 20.194 48.6007C20.194 48.4453 20.1848 48.3081 20.1573 48.1709C20.1297 48.0428 20.0929 47.924 20.0378 47.8233C19.9827 47.7227 19.9184 47.6404 19.8449 47.5856C19.7714 47.5307 19.6795 47.4941 19.5784 47.4941C19.4682 47.4941 19.3671 47.5307 19.2936 47.6038C19.2201 47.677 19.1558 47.7685 19.119 47.8782C19.0731 47.988 19.0455 48.116 19.0272 48.2623C19.0088 48.3995 18.9996 48.5459 18.9996 48.683Z" fill="#171191"/>
<path d="M22.8309 49.5794H22.8217C22.8033 49.616 22.7757 49.6526 22.7298 49.6983C22.6839 49.744 22.6287 49.7898 22.5644 49.8355C22.5001 49.8812 22.4174 49.9178 22.3164 49.9452C22.2245 49.9727 22.1142 49.991 21.9856 49.991C21.7651 49.991 21.5813 49.9269 21.4527 49.7989C21.3241 49.6709 21.2598 49.4788 21.2598 49.241C21.2598 49.0855 21.3057 48.9483 21.3976 48.8477C21.4895 48.738 21.5997 48.6557 21.7283 48.5917C21.857 48.5276 22.004 48.4819 22.151 48.4453C22.298 48.4179 22.4358 48.3996 22.5552 48.3996C22.6012 48.3996 22.6471 48.3996 22.6931 48.3996C22.739 48.3996 22.7757 48.3904 22.8217 48.3813V48.2533C22.8217 48.2075 22.8217 48.1527 22.8217 48.1069C22.8217 48.0521 22.8217 48.0063 22.8125 47.9697C22.8125 47.924 22.8033 47.8966 22.8033 47.8691C22.7849 47.796 22.7666 47.732 22.7298 47.6862C22.6931 47.6405 22.6563 47.6039 22.6104 47.5765C22.5644 47.549 22.5185 47.5307 22.4634 47.5124C22.4082 47.5033 22.3623 47.4942 22.3072 47.4942C22.1969 47.4942 22.105 47.5033 22.0407 47.5307C21.9764 47.5582 21.9213 47.5856 21.8753 47.6313C21.8386 47.6771 21.811 47.7228 21.7927 47.7685C21.7743 47.8234 21.7651 47.8691 21.7559 47.924H21.3149C21.3149 47.8417 21.3333 47.7502 21.3608 47.6588C21.3884 47.5673 21.4435 47.485 21.5262 47.4118C21.5997 47.3387 21.7008 47.2838 21.8294 47.2289C21.9488 47.1832 22.105 47.1558 22.298 47.1558C22.5093 47.1558 22.6747 47.1832 22.7941 47.2472C22.9136 47.3021 23.0054 47.3753 23.0698 47.4667C23.1341 47.5582 23.1708 47.6496 23.1892 47.7502C23.2076 47.8508 23.2076 47.9423 23.2076 48.0246V49.9178H22.8309V49.5794ZM22.592 48.7197C22.5185 48.7197 22.4358 48.7288 22.3347 48.7471C22.2337 48.7654 22.1326 48.7929 22.0407 48.8386C21.9488 48.8843 21.8662 48.9392 21.8018 49.0124C21.7375 49.0855 21.7008 49.1861 21.7008 49.2959C21.7008 49.4239 21.7375 49.5245 21.8202 49.5885C21.8937 49.6526 21.9856 49.6891 22.0867 49.6891C22.2061 49.6891 22.3255 49.6526 22.4542 49.5794C22.5736 49.5062 22.6655 49.4056 22.7206 49.2684C22.739 49.2319 22.7482 49.1953 22.7666 49.1678C22.7757 49.1313 22.7941 49.1038 22.8033 49.0581C22.8125 49.0215 22.8217 48.9758 22.8217 48.9209C22.8217 48.866 22.8309 48.802 22.8309 48.7197H22.592Z" fill="#171191"/>
<path d="M25.5313 49.4787H25.5221C25.5038 49.5245 25.4854 49.5793 25.4486 49.6433C25.4119 49.7074 25.3659 49.7622 25.3108 49.8171C25.2557 49.872 25.1822 49.9177 25.0995 49.9543C25.0168 49.9909 24.9249 50.0092 24.8147 50.0092C24.6493 50.0092 24.5115 49.9726 24.392 49.9086C24.2726 49.8446 24.1807 49.7531 24.1072 49.6342C24.0337 49.5153 23.9786 49.369 23.9418 49.1952C23.9051 49.0214 23.8867 48.8294 23.8867 48.619C23.8867 48.4361 23.9051 48.2623 23.9418 48.0886C23.9786 47.9148 24.0337 47.7593 24.1072 47.6313C24.1807 47.4941 24.2726 47.3935 24.392 47.3112C24.5115 47.2289 24.6493 47.1923 24.8147 47.1923C24.9341 47.1923 25.0352 47.2106 25.1179 47.2472C25.2006 47.2837 25.2741 47.3203 25.3292 47.3752C25.3843 47.4301 25.4303 47.485 25.4578 47.5398C25.4854 47.5947 25.513 47.6496 25.5313 47.7044H25.5405V46.0491H25.9264V49.9634H25.5405V49.4787H25.5313ZM24.3277 48.683C24.3277 48.7745 24.3369 48.866 24.3461 48.9849C24.3553 49.0946 24.3829 49.2044 24.4196 49.305C24.4564 49.4056 24.5115 49.497 24.585 49.5702C24.6585 49.6433 24.7596 49.6799 24.8882 49.6799C24.9984 49.6799 25.0903 49.6433 25.173 49.5793C25.2557 49.5153 25.32 49.4239 25.3751 49.3141C25.4303 49.2044 25.467 49.0946 25.4854 48.9666C25.513 48.8385 25.5221 48.7196 25.5221 48.6007C25.5221 48.4453 25.513 48.3081 25.4854 48.1709C25.4578 48.0428 25.4211 47.924 25.366 47.8233C25.3108 47.7227 25.2465 47.6404 25.173 47.5856C25.0995 47.5307 25.0076 47.4941 24.9066 47.4941C24.7963 47.4941 24.6952 47.5307 24.6217 47.6038C24.5482 47.677 24.4839 47.7685 24.4472 47.8782C24.4012 47.988 24.3737 48.116 24.3553 48.2623C24.3369 48.3995 24.3277 48.5459 24.3277 48.683Z" fill="#171191"/>
<path d="M28.7301 46.3965H27.793V46.0215H30.1175V46.3965H29.1711V49.945H28.7301V46.3965Z" fill="#171191"/>
<path d="M30.5391 47.238H30.925V47.7593H30.9341C30.9525 47.7136 30.9801 47.6587 31.026 47.5947C31.0628 47.5306 31.1179 47.4666 31.1914 47.4026C31.2557 47.3386 31.3476 47.2837 31.4578 47.2471C31.5681 47.2014 31.6967 47.1831 31.8529 47.1831V47.5947C31.6967 47.5947 31.5589 47.6221 31.4487 47.6861C31.3384 47.7501 31.2373 47.8325 31.1638 47.9422C31.0903 48.052 31.0352 48.18 30.9893 48.3355C30.9525 48.491 30.9341 48.6556 30.9341 48.8385V49.9543H30.5483V47.238H30.5391Z" fill="#171191"/>
<path d="M34.0669 49.9267C33.8924 49.9816 33.6902 50.009 33.4422 50.009C33.0195 50.009 32.698 49.881 32.4683 49.6341C32.2386 49.3871 32.1191 49.0121 32.1191 48.5C32.1191 48.2988 32.1375 48.1158 32.1835 47.9512C32.2294 47.7866 32.2937 47.6494 32.3764 47.5305C32.4683 47.4116 32.5693 47.3293 32.7072 47.2653C32.8358 47.2013 33.0012 47.1738 33.1849 47.1738C33.3411 47.1738 33.4789 47.2013 33.5984 47.247C33.7178 47.3019 33.8189 47.3659 33.8924 47.4665C33.9751 47.558 34.0302 47.6677 34.0669 47.7957C34.1037 47.9238 34.1221 48.061 34.1221 48.2073V48.3353H32.5602V48.4908C32.5602 48.5914 32.5693 48.7103 32.5969 48.8475C32.6245 48.9847 32.6704 49.1127 32.7439 49.2408C32.8174 49.3597 32.9185 49.4694 33.0379 49.5517C33.1665 49.634 33.3227 49.6798 33.5157 49.6798C33.5892 49.6798 33.6535 49.6798 33.7086 49.6706C33.7638 49.6615 33.8097 49.6615 33.8464 49.6523C33.8832 49.6432 33.9199 49.6341 33.9567 49.6341C33.9934 49.6249 34.021 49.6158 34.0486 49.6158V49.9267H34.0669ZM33.6811 48.0152C33.6811 47.9695 33.6719 47.9146 33.6535 47.8598C33.6351 47.8049 33.6076 47.7409 33.5708 47.6951C33.5341 47.6403 33.4789 47.5945 33.4146 47.558C33.3503 47.5214 33.2676 47.5031 33.1665 47.5031C33.0655 47.5031 32.9828 47.5214 32.9093 47.558C32.845 47.5945 32.7807 47.6403 32.7439 47.6951C32.698 47.75 32.6704 47.8049 32.6428 47.8598C32.6245 47.9146 32.6061 47.9695 32.5969 48.0152H33.6811Z" fill="#171191"/>
<path d="M35.6834 48.4177C35.7569 48.4542 35.8304 48.4908 35.9039 48.5366C35.9774 48.5823 36.0417 48.628 36.106 48.6829C36.1703 48.7378 36.2163 48.8109 36.253 48.8932C36.2898 48.9755 36.3174 49.0762 36.3174 49.1951C36.3174 49.4694 36.2255 49.6706 36.0509 49.8078C35.8763 49.945 35.6283 50.009 35.3067 50.009C35.1321 50.009 34.9759 49.9907 34.8381 49.9633C34.7095 49.9359 34.6176 49.9084 34.5625 49.8901V49.5426C34.5809 49.5517 34.6084 49.5609 34.6544 49.5792C34.7003 49.5975 34.7554 49.6066 34.8198 49.6249C34.8841 49.6432 34.9576 49.6523 35.0311 49.6706C35.1046 49.6798 35.1873 49.6889 35.2608 49.6889C35.3526 49.6889 35.4445 49.6798 35.5272 49.6615C35.6099 49.6432 35.6742 49.6158 35.7385 49.5883C35.7937 49.5517 35.8396 49.506 35.8763 49.4511C35.9131 49.3963 35.9315 49.3322 35.9315 49.2499C35.9315 49.1859 35.9131 49.1219 35.8763 49.067C35.8396 49.0121 35.7937 48.9756 35.7477 48.9298C35.6926 48.8932 35.6375 48.8567 35.5823 48.8292C35.5272 48.8018 35.4813 48.7743 35.4353 48.7561L35.1873 48.628C35.1229 48.5914 35.0586 48.5548 34.9851 48.5183C34.9116 48.4817 34.8473 48.4268 34.783 48.3719C34.7187 48.3171 34.6728 48.253 34.6268 48.1707C34.5901 48.0976 34.5625 47.9969 34.5625 47.8872C34.5625 47.6677 34.6452 47.4939 34.8014 47.3659C34.9576 47.2379 35.1873 47.1738 35.4905 47.1738C35.6375 47.1738 35.7569 47.183 35.8672 47.2104C35.9774 47.2287 36.0601 47.2561 36.1244 47.2653V47.622C36.0785 47.6037 35.9958 47.5762 35.8763 47.5488C35.7569 47.5122 35.6283 47.5031 35.4905 47.5031C35.3251 47.5031 35.1873 47.5397 35.0954 47.6037C34.9943 47.6677 34.9484 47.7592 34.9484 47.8506C34.9484 47.9055 34.9668 47.9512 34.9943 47.9969C35.0219 48.0335 35.0678 48.0701 35.1138 48.1067C35.1597 48.1341 35.2148 48.1707 35.27 48.1982C35.3251 48.2256 35.3802 48.253 35.4353 48.2805L35.6834 48.4177Z" fill="#171191"/>
<path d="M40.7286 49.7713C40.6827 49.7896 40.6367 49.8079 40.5816 49.8353C40.5265 49.8628 40.453 49.8811 40.3703 49.9085C40.2876 49.9359 40.1865 49.9542 40.0763 49.9725C39.966 49.9908 39.8374 50 39.6904 50C39.3964 50 39.1483 49.9359 38.9554 49.8079C38.7624 49.6799 38.6062 49.5152 38.4868 49.314C38.3765 49.1128 38.2938 48.8842 38.2479 48.6372C38.202 48.3903 38.1836 48.1434 38.1836 47.9056C38.1836 47.6495 38.2112 47.4117 38.2571 47.1739C38.303 46.9361 38.3857 46.7349 38.5052 46.552C38.6154 46.3691 38.7716 46.2319 38.9646 46.1221C39.1575 46.0124 39.3872 45.9575 39.672 45.9575C39.8741 45.9575 40.0487 45.985 40.1957 46.049C40.3519 46.1039 40.4713 46.1862 40.5816 46.2868C40.6827 46.3874 40.7654 46.5063 40.8113 46.6435C40.8664 46.7806 40.894 46.927 40.894 47.0916H40.3887C40.3887 46.8721 40.3243 46.6892 40.2049 46.5428C40.0855 46.3965 39.9017 46.3234 39.672 46.3234C39.4607 46.3234 39.2953 46.3691 39.1667 46.4697C39.0381 46.5703 38.937 46.6892 38.8635 46.8447C38.79 47.0001 38.744 47.1739 38.7165 47.3568C38.6889 47.5489 38.6797 47.7409 38.6797 47.9239C38.6797 48.0336 38.6889 48.1525 38.6981 48.2806C38.7073 48.4086 38.7349 48.5366 38.7624 48.6555C38.79 48.7836 38.8359 48.9025 38.891 49.0214C38.9462 49.1403 39.0105 49.2409 39.0932 49.3323C39.1759 49.4238 39.2769 49.4969 39.3964 49.5518C39.5158 49.6067 39.6536 49.6341 39.819 49.6341C39.9476 49.6341 40.0579 49.625 40.159 49.5975C40.26 49.5701 40.3519 49.5427 40.4254 49.5061C40.4989 49.4695 40.5724 49.4329 40.6275 49.3963C40.6827 49.3598 40.7286 49.3323 40.7562 49.3049V49.7713H40.7286Z" fill="#171191"/>
<path d="M42.8959 49.3141H42.8867C42.8683 49.369 42.8408 49.4422 42.8132 49.5153C42.7765 49.5885 42.7305 49.6708 42.6662 49.744C42.6019 49.8172 42.5192 49.8812 42.4181 49.9269C42.3171 49.9818 42.1885 50.0001 42.0414 50.0001C41.922 50.0001 41.8209 49.9818 41.7291 49.936C41.6372 49.8903 41.5729 49.8263 41.5086 49.7531C41.4534 49.68 41.4075 49.5885 41.3799 49.4879C41.3524 49.3873 41.334 49.2775 41.334 49.1678V47.238H41.7199V48.7379C41.7199 48.8568 41.7199 48.9666 41.7291 49.0763C41.7291 49.1861 41.7474 49.2776 41.775 49.3599C41.8026 49.4422 41.8393 49.5062 41.8944 49.5519C41.9496 49.5977 42.0231 49.6251 42.1241 49.6251C42.2528 49.6251 42.363 49.5794 42.4641 49.497C42.556 49.4147 42.6387 49.305 42.703 49.1769C42.7673 49.0489 42.8132 48.9117 42.85 48.7654C42.8867 48.6191 42.8959 48.4819 42.8959 48.363V47.2472H43.2818V49.9452H42.8959V49.3141Z" fill="#171191"/>
<path d="M44.6144 46.0215H44.2285V49.9359H44.6144V46.0215Z" fill="#171191"/>
<path d="M46.8189 49.9725C46.7638 49.9816 46.7087 49.9907 46.6444 49.9907C46.5892 49.9999 46.5341 49.9999 46.4698 49.9999C46.1942 49.9999 46.0012 49.945 45.891 49.8353C45.7807 49.7255 45.7164 49.5426 45.7164 49.3048V47.558H45.2754V47.2379H45.7164V46.6068L46.1023 46.3599V47.2379H46.8281V47.558H46.1023V49.2225C46.1023 49.2682 46.1115 49.314 46.1207 49.3688C46.1299 49.4237 46.1482 49.4694 46.185 49.5152C46.2125 49.5609 46.2585 49.5975 46.3228 49.6249C46.3779 49.6523 46.4606 49.6706 46.5617 49.6706C46.626 49.6706 46.6719 49.6615 46.7087 49.6524C46.7454 49.6432 46.7822 49.6341 46.8189 49.6158V49.9725Z" fill="#171191"/>
<path d="M48.9428 49.3141H48.9336C48.9152 49.369 48.8876 49.4422 48.8601 49.5153C48.8233 49.5885 48.7774 49.6708 48.7131 49.744C48.6488 49.8172 48.5661 49.8812 48.465 49.9269C48.3639 49.9818 48.2353 50.0001 48.0883 50.0001C47.9689 50.0001 47.8678 49.9818 47.7759 49.936C47.6841 49.8903 47.6197 49.8263 47.5554 49.7531C47.5003 49.68 47.4544 49.5885 47.4268 49.4879C47.3992 49.3873 47.3809 49.2775 47.3809 49.1678V47.238H47.7667V48.7379C47.7667 48.8568 47.7667 48.9666 47.7759 49.0763C47.7759 49.1861 47.7943 49.2776 47.8219 49.3599C47.8494 49.4422 47.8862 49.5062 47.9413 49.5519C47.9964 49.5977 48.0699 49.6251 48.171 49.6251C48.2996 49.6251 48.4099 49.5794 48.511 49.497C48.6028 49.4147 48.6855 49.305 48.7498 49.1769C48.8141 49.0489 48.8601 48.9117 48.8968 48.7654C48.9244 48.6191 48.9428 48.4819 48.9428 48.363V47.2472H49.3287V49.9452H48.9428V49.3141Z" fill="#171191"/>
<path d="M50.2383 47.238H50.6242V47.7593H50.6334C50.6517 47.7136 50.6793 47.6587 50.7252 47.5947C50.762 47.5306 50.8171 47.4666 50.8906 47.4026C50.9549 47.3386 51.0468 47.2837 51.1571 47.2471C51.2673 47.2014 51.3959 47.1831 51.5521 47.1831V47.5947C51.3959 47.5947 51.2581 47.6221 51.1479 47.6861C51.0376 47.7501 50.9365 47.8325 50.863 47.9422C50.7895 48.052 50.7344 48.18 50.6885 48.3355C50.6517 48.491 50.6334 48.6556 50.6334 48.8385V49.9543H50.2475V47.238H50.2383Z" fill="#171191"/>
<path d="M53.3621 49.5794H53.3529C53.3346 49.616 53.307 49.6526 53.2611 49.6983C53.2151 49.744 53.16 49.7898 53.0957 49.8355C53.0314 49.8812 52.9487 49.9178 52.8476 49.9452C52.7557 49.9727 52.6455 49.991 52.5168 49.991C52.2963 49.991 52.1126 49.9269 51.984 49.7989C51.8553 49.6709 51.791 49.4788 51.791 49.241C51.791 49.0855 51.837 48.9483 51.9288 48.8477C52.0207 48.738 52.131 48.6557 52.2596 48.5917C52.3882 48.5276 52.5352 48.4819 52.6822 48.4453C52.8292 48.4179 52.967 48.3996 53.0865 48.3996C53.1324 48.3996 53.1784 48.3996 53.2243 48.3996C53.2702 48.3996 53.307 48.3904 53.3529 48.3813V48.2533C53.3529 48.2075 53.3529 48.1527 53.3529 48.1069C53.3529 48.0521 53.3529 48.0063 53.3437 47.9697C53.3437 47.924 53.3346 47.8966 53.3346 47.8691C53.3162 47.796 53.2978 47.732 53.2611 47.6862C53.2243 47.6405 53.1876 47.6039 53.1416 47.5765C53.0957 47.549 53.0497 47.5307 52.9946 47.5124C52.9395 47.5033 52.8935 47.4942 52.8384 47.4942C52.7282 47.4942 52.6363 47.5033 52.572 47.5307C52.5077 47.5582 52.4525 47.5856 52.4066 47.6313C52.3698 47.6771 52.3423 47.7228 52.3239 47.7685C52.3055 47.8234 52.2963 47.8691 52.2872 47.924H51.8553C51.8553 47.8417 51.8737 47.7502 51.9013 47.6588C51.9288 47.5673 51.984 47.485 52.0666 47.4118C52.1402 47.3387 52.2412 47.2838 52.3698 47.2289C52.4893 47.1832 52.6455 47.1558 52.8384 47.1558C53.0497 47.1558 53.2151 47.1832 53.3346 47.2472C53.454 47.3021 53.5459 47.3753 53.6102 47.4667C53.6745 47.5582 53.7113 47.6496 53.7296 47.7502C53.748 47.8508 53.748 47.9423 53.748 48.0246V49.9178H53.3713V49.5794H53.3621ZM53.1232 48.7197C53.0497 48.7197 52.9671 48.7288 52.866 48.7471C52.7649 48.7654 52.6639 48.7929 52.572 48.8386C52.4801 48.8843 52.3974 48.9392 52.3331 49.0124C52.2688 49.0855 52.232 49.1861 52.232 49.2959C52.232 49.4239 52.2688 49.5245 52.3515 49.5885C52.425 49.6526 52.5169 49.6891 52.6179 49.6891C52.7374 49.6891 52.8568 49.6526 52.9854 49.5794C53.1049 49.5062 53.1967 49.4056 53.2519 49.2684C53.2702 49.2319 53.2794 49.1953 53.2978 49.1678C53.307 49.1313 53.3254 49.1038 53.3346 49.0581C53.3438 49.0215 53.3529 48.9758 53.3529 48.9209C53.3529 48.866 53.3621 48.802 53.3621 48.7197H53.1232Z" fill="#171191"/>
<path d="M55.4842 48.4177C55.5577 48.4542 55.6312 48.4908 55.7047 48.5366C55.7782 48.5823 55.8425 48.628 55.9068 48.6829C55.9711 48.7378 56.0171 48.8109 56.0538 48.8932C56.0906 48.9755 56.1181 49.0762 56.1181 49.1951C56.1181 49.4694 56.0263 49.6706 55.8517 49.8078C55.6771 49.945 55.4291 50.009 55.1075 50.009C54.9329 50.009 54.7767 49.9907 54.6389 49.9633C54.5103 49.9359 54.4184 49.9084 54.3633 49.8901V49.5426C54.3817 49.5517 54.4092 49.5609 54.4552 49.5792C54.5011 49.5975 54.5562 49.6066 54.6205 49.6249C54.6849 49.6432 54.7584 49.6523 54.8319 49.6706C54.9054 49.6798 54.988 49.6889 55.0615 49.6889C55.1534 49.6889 55.2453 49.6798 55.328 49.6615C55.4107 49.6432 55.475 49.6158 55.5393 49.5883C55.5944 49.5517 55.6404 49.506 55.6771 49.4511C55.7139 49.3963 55.7322 49.3322 55.7322 49.2499C55.7322 49.1859 55.7139 49.1219 55.6771 49.067C55.6404 49.0121 55.5944 48.9756 55.5485 48.9298C55.4934 48.8932 55.4474 48.8567 55.3831 48.8292C55.328 48.8018 55.2821 48.7743 55.2361 48.7561L54.988 48.628C54.9237 48.5914 54.8594 48.5548 54.7859 48.5183C54.7124 48.4817 54.6481 48.4268 54.5838 48.3719C54.5195 48.3171 54.4735 48.253 54.4276 48.1707C54.3908 48.0976 54.3633 47.9969 54.3633 47.8872C54.3633 47.6677 54.446 47.4939 54.6022 47.3659C54.7584 47.2379 54.988 47.1738 55.2912 47.1738C55.4382 47.1738 55.5577 47.183 55.6679 47.2104C55.7782 47.2287 55.8609 47.2561 55.9252 47.2653V47.622C55.8793 47.6037 55.7966 47.5762 55.6771 47.5488C55.5577 47.5122 55.4291 47.5031 55.2912 47.5031C55.1259 47.5031 54.988 47.5397 54.8962 47.6037C54.7951 47.6677 54.7492 47.7592 54.7492 47.8506C54.7492 47.9055 54.7675 47.9512 54.7951 47.9969C54.8227 48.0335 54.8686 48.0701 54.9145 48.1067C54.9605 48.1341 55.0156 48.1707 55.0707 48.1982C55.1259 48.2256 55.1902 48.253 55.2361 48.2805L55.4842 48.4177Z" fill="#171191"/>
</g>
<defs>
<clipPath id="clip0_999:2377">
<rect width="57.2581" height="50" fill="white"/>
</clipPath>
</defs>
</svg>
