<svg width="538" height="407" viewBox="0 0 538 407" fill="none" xmlns="http://www.w3.org/2000/svg">
<path d="M0.0401684 94.8159H75.7326V99.7425C75.7326 174.766 75.7326 249.789 75.7326 324.812C75.7326 328.355 75.9052 331.813 76.2504 335.356C77.545 347.457 84.4497 354.717 96.4465 356.1C105.077 357.051 113.708 356.273 122.08 353.507C125.187 352.47 126.482 351.001 126.482 347.371C126.309 279.781 126.396 212.191 126.396 144.514V139.501H201.829V402.601C200.793 402.687 199.758 402.86 198.636 402.86C180.166 402.86 161.782 402.774 143.312 402.946C140.723 402.946 139.514 402.168 138.738 399.748C137.529 396.118 135.976 392.575 134.767 389.204C107.753 407.182 78.4944 410.034 48.0276 403.638C22.9982 398.365 8.58469 381.598 3.66512 357.051C1.4211 346.074 0.385402 334.665 0.299093 323.429C-0.0461399 248.406 0.0401684 173.469 0.0401684 98.6189V94.8159Z" fill="#0033FF"/>
<path d="M237.647 132.933H127.604V94.6431H237.561V0.777832H314.03V94.5567H369.008V133.192H314.202V137.773C314.202 199.745 314.116 261.716 314.375 323.602C314.375 331.121 315.756 338.814 317.482 346.161C318.777 352.038 322.92 356.187 329.134 357.137C340.268 358.78 351.488 360.076 362.621 361.459C363.916 361.632 365.297 361.459 366.851 361.459V402.255C366.333 402.428 365.729 402.687 365.124 402.687C343.461 402.514 321.711 402.86 300.048 401.996C284.253 401.391 269.408 396.464 257.412 385.487C246.623 375.634 241.445 362.755 239.373 348.753C238.251 341.234 237.82 333.541 237.82 325.849C237.733 263.272 237.733 200.695 237.733 138.118V132.933H237.647Z" fill="#0033FF"/>
<path d="M475.081 326.454H531.268C530.75 332.591 530.491 338.728 529.628 344.691C526.78 364.484 519.098 381.598 501.405 392.661C492.429 398.279 482.676 401.65 472.319 403.379C455.748 406.145 439.091 406.836 422.606 402.774C398.353 396.724 381.696 381.252 370.217 359.644C359.773 339.938 354.854 318.589 352.092 296.722C348.553 268.977 348.208 241.059 350.625 213.228C352.955 186.953 357.875 161.196 370.648 137.687C387.306 107.003 413.457 91.964 448.067 90.9268C461.876 90.4947 475.426 91.7911 488.459 96.5449C514.438 106.052 528.765 125.5 534.116 151.948C536.101 161.888 536.705 172 538 182.458H470.852C470.766 181.162 470.68 179.779 470.593 178.31C469.816 169.58 469.471 160.764 468.177 152.121C467.141 145.033 463.257 139.675 455.662 138.378C447.463 136.995 440.644 140.452 436.415 147.799C432.445 154.714 431.15 162.406 430.546 170.185C426.231 220.489 426.576 270.878 429.942 321.182C430.46 329.134 432.013 337.172 434.516 344.691C438.141 355.236 447.376 359.644 458.337 357.656C464.465 356.533 469.126 353.162 470.938 347.112C472.665 341.234 473.614 335.184 474.822 329.134C474.822 328.269 474.909 327.405 475.081 326.454Z" fill="#0033FF"/>
</svg>
