<svg width="215" height="44" viewBox="0 0 215 44" fill="none" xmlns="http://www.w3.org/2000/svg">
<g clip-path="url(#clip0_301_1773)">
<path d="M100.179 29.7026C99.2874 30.4026 98.3122 31.0038 97.2539 31.5042C96.1935 32.0066 95.0354 32.3875 93.7755 32.6448C92.5155 32.9022 91.1037 33.0319 89.536 33.0319C87.1699 33.0319 84.9743 32.6057 82.9471 31.7533C80.9199 30.9029 79.1692 29.7396 77.695 28.2634C76.2209 26.7891 75.069 25.0473 74.2394 23.0398C73.4099 21.0323 72.9961 18.8869 72.9961 16.6055V16.5149C72.9961 14.2336 73.4099 12.0964 74.2394 10.1054C75.069 8.11437 76.2209 6.36425 77.695 4.85915C79.1692 3.35405 80.9344 2.16809 82.9928 1.30126C85.0512 0.434441 87.3258 0 89.8125 0C91.3179 0 92.6922 0.121479 93.9356 0.364436C95.1789 0.607394 96.3079 0.943004 97.3225 1.36921C98.3372 1.79541 99.2728 2.31221 100.134 2.91961C100.992 3.52906 101.793 4.19616 102.529 4.92709L98.0128 10.0827C96.7528 8.95854 95.47 8.07525 94.1663 7.43697C92.8606 6.79869 91.3948 6.47955 89.7668 6.47955C88.4153 6.47955 87.1637 6.73898 86.0118 7.25578C84.8599 7.77258 83.8702 8.48704 83.0406 9.40122C82.211 10.3133 81.5665 11.3716 81.1049 12.572C80.6433 13.7745 80.4146 15.0592 80.4146 16.4285V16.519C80.4146 17.8883 80.6454 19.1813 81.1049 20.3981C81.5665 21.615 82.2027 22.6795 83.0178 23.5916C83.8307 24.5037 84.8142 25.2264 85.966 25.7597C87.1179 26.2929 88.3841 26.5585 89.7668 26.5585C91.6089 26.5585 93.1683 26.225 94.4429 25.5538C95.7174 24.8846 96.9836 23.9725 98.2436 22.8153L102.76 27.3327C101.93 28.2119 101.069 29.0025 100.179 29.7026Z" fill="#002D5D"/>
<path d="M143.857 32.4855L140.908 25.3224H127.271L124.323 32.4855H117.089L130.909 0.318359H137.453L151.275 32.4855H143.857ZM134.088 8.7601L129.803 19.1167H138.374L134.088 8.7601Z" fill="#002D5D"/>
<path d="M192.189 16.5615C191.514 17.9616 190.584 19.1331 189.401 20.0741C188.218 21.0171 186.835 21.7253 185.255 22.1948C183.673 22.6663 181.976 22.9031 180.163 22.9031H174.772V32.4855H167.676V0.546875H180.854C182.789 0.546875 184.517 0.812481 186.037 1.34575C187.557 1.87902 188.848 2.63054 189.906 3.60443C190.967 4.57832 191.78 5.74163 192.347 7.09437C192.915 8.44917 193.2 9.94603 193.2 11.5891V11.6797C193.202 13.5348 192.863 15.1634 192.189 16.5615ZM186.014 11.725C186.014 10.1437 185.499 8.94126 184.471 8.11973C183.442 7.29821 182.037 6.88848 180.255 6.88848H174.772V16.6521H180.394C182.176 16.6521 183.557 16.1888 184.54 15.2602C185.524 14.3337 186.014 13.1848 186.014 11.8156V11.725V11.725Z" fill="#002D5D"/>
<path d="M55.9656 43.4537C55.8159 43.5669 55.6558 43.6637 55.4853 43.744C55.3148 43.8243 55.1318 43.8881 54.9322 43.9334C54.7347 43.9787 54.5185 44.0014 54.2856 44.0014C53.9051 44.0014 53.5517 43.9314 53.2273 43.7893C52.9029 43.6493 52.6223 43.4557 52.3852 43.2128C52.1482 42.9698 51.9652 42.6816 51.8322 42.3501C51.6991 42.0186 51.6346 41.6644 51.6346 41.2856V41.2712C51.6346 40.8985 51.7012 40.5464 51.8363 40.2149C51.9715 39.8835 52.1565 39.5931 52.3915 39.344C52.6285 39.0949 52.9071 38.8993 53.2335 38.7551C53.5579 38.611 53.9134 38.541 54.3002 38.541C54.5393 38.541 54.7534 38.5616 54.9468 38.6007C55.1401 38.6419 55.319 38.6996 55.4832 38.7737C55.6475 38.8499 55.8034 38.9384 55.9469 39.0413C56.0924 39.1443 56.2317 39.2596 56.3689 39.3852L56.0883 39.6714C55.9718 39.5602 55.8492 39.4573 55.7223 39.3625C55.5955 39.2678 55.4603 39.1855 55.3148 39.1175C55.1693 39.0496 55.0133 38.996 54.8428 38.9549C54.6723 38.9137 54.4894 38.8952 54.2898 38.8952C53.9696 38.8952 53.6722 38.9549 53.3978 39.0763C53.1233 39.1978 52.8863 39.3646 52.6867 39.5787C52.4871 39.7929 52.3291 40.042 52.2147 40.3282C52.1004 40.6144 52.0442 40.9232 52.0442 41.2547V41.2691C52.0442 41.6006 52.1025 41.9115 52.2189 42.1998C52.3353 42.488 52.4933 42.7413 52.695 42.9534C52.8946 43.1675 53.1337 43.3363 53.4061 43.4578C53.6806 43.5813 53.9779 43.6431 54.2981 43.6431C54.6848 43.6431 55.0196 43.5731 55.3023 43.431C55.5872 43.291 55.8637 43.0872 56.1319 42.8195L56.3981 43.0769C56.2629 43.2169 56.1153 43.3404 55.9656 43.4537Z" fill="#002D5D"/>
<path d="M57.2942 43.91V38.6309H61.0866V38.985H57.6892V41.0748H60.7436V41.429H57.6892V43.5559H61.1241V43.91H57.2942V43.91Z" fill="#002D5D"/>
<path d="M66.3346 43.91L62.5796 39.2197V43.91H62.1991V38.6309H62.5713L66.2493 43.2244V38.6309H66.6298V43.91H66.3346Z" fill="#002D5D"/>
<path d="M69.8918 38.985V43.91H69.4967V38.985H67.6379V38.6309H71.7506V38.985H69.8918V38.985Z" fill="#002D5D"/>
<path d="M76.5932 43.91L74.8945 41.7234H73.1501V43.91H72.755V38.6309H74.9943C75.2833 38.6309 75.5453 38.6679 75.7782 38.74C76.011 38.812 76.2106 38.915 76.377 39.0488C76.5412 39.1827 76.6701 39.3412 76.7616 39.5244C76.8531 39.7077 76.8988 39.9115 76.8988 40.1318V40.1462C76.8988 40.3666 76.8593 40.5642 76.7803 40.7392C76.7013 40.9122 76.5932 41.0625 76.4518 41.1881C76.3125 41.3137 76.1483 41.4146 75.957 41.4928C75.7657 41.571 75.5598 41.6246 75.3374 41.6555L77.0964 43.91H76.5932V43.91ZM76.5017 40.1421C76.5017 39.7839 76.3686 39.5018 76.1025 39.2959C75.8364 39.09 75.458 38.985 74.9714 38.985H73.1521V41.3672H74.9486C75.171 41.3672 75.3789 41.3404 75.5702 41.2848C75.7615 41.2293 75.9237 41.151 76.0609 41.046C76.1982 40.9431 76.3063 40.8175 76.3853 40.6672C76.4643 40.5189 76.5038 40.348 76.5038 40.1565V40.1421H76.5017Z" fill="#002D5D"/>
<path d="M82.9945 42.3088C82.8656 42.6382 82.6826 42.9286 82.4498 43.1798C82.2169 43.4309 81.9341 43.6307 81.6015 43.7789C81.2688 43.9272 80.9029 44.0013 80.5016 44.0013C80.0961 44.0013 79.7281 43.9272 79.4017 43.7789C79.0732 43.6307 78.7946 43.4309 78.5596 43.1839C78.3268 42.9347 78.1459 42.6465 78.019 42.3212C77.8922 41.9938 77.8278 41.6499 77.8278 41.2876V41.2732C77.8278 40.9108 77.8922 40.5649 78.0211 40.2354C78.15 39.906 78.333 39.6157 78.5659 39.3645C78.7987 39.1133 79.0815 38.9136 79.4121 38.7653C79.7427 38.6171 80.1107 38.543 80.5161 38.543C80.9174 38.543 81.2833 38.6171 81.6119 38.7653C81.9424 38.9136 82.2231 39.1112 82.4581 39.3604C82.691 39.6095 82.8718 39.8978 82.9987 40.2231C83.1255 40.5505 83.19 40.8943 83.19 41.2567C83.1941 41.2629 83.1941 41.267 83.19 41.2711C83.1879 41.6335 83.1234 41.9794 82.9945 42.3088ZM82.7762 41.2711C82.7762 40.9437 82.7201 40.6369 82.6057 40.3466C82.4913 40.0584 82.3333 39.8051 82.1337 39.593C81.9341 39.3789 81.6929 39.2101 81.4143 39.0845C81.1357 38.9589 80.8301 38.895 80.4995 38.895C80.1689 38.895 79.8654 38.9568 79.5888 39.0804C79.3123 39.2039 79.0732 39.3727 78.8736 39.5848C78.6719 39.7989 78.516 40.0481 78.4058 40.3343C78.2935 40.6205 78.2374 40.9272 78.2374 41.2546V41.269C78.2374 41.5964 78.2935 41.9032 78.4078 42.1935C78.5222 42.4818 78.6802 42.735 78.8798 42.9471C79.0794 43.1612 79.3206 43.3301 79.5992 43.4557C79.8778 43.5813 80.1835 43.6451 80.512 43.6451C80.8405 43.6451 81.1461 43.5833 81.4227 43.4598C81.6992 43.3362 81.9383 43.1674 82.1379 42.9553C82.3375 42.7412 82.4955 42.4921 82.6057 42.2059C82.718 41.9197 82.7741 41.6129 82.7741 41.2855V41.2711H82.7762Z" fill="#002D5D"/>
<path d="M90.8274 42.3102C90.6902 42.6314 90.4968 42.9114 90.2452 43.1482C89.9937 43.385 89.6943 43.5703 89.347 43.7062C88.9998 43.8421 88.6172 43.91 88.2014 43.91H86.4279V38.6309H88.2014C88.6172 38.6309 88.9998 38.6967 89.347 38.8306C89.6943 38.9644 89.9937 39.1477 90.2452 39.3844C90.4968 39.6212 90.6902 39.8992 90.8274 40.2183C90.9646 40.5375 91.0332 40.8834 91.0332 41.256V41.2704C91.0332 41.6431 90.9646 41.989 90.8274 42.3102ZM90.6216 41.2704C90.6216 40.9575 90.5654 40.663 90.4511 40.3851C90.3367 40.1071 90.1766 39.8662 89.9666 39.6583C89.7587 39.4524 89.505 39.2877 89.2056 39.1662C88.9062 39.0447 88.5715 38.985 88.1993 38.985H86.8208V43.5559H88.1993C88.5694 43.5559 88.9042 43.4962 89.2056 43.3788C89.505 43.2594 89.7587 43.0988 89.9666 42.895C90.1745 42.6911 90.3367 42.4502 90.4511 42.1764C90.5654 41.9005 90.6216 41.606 90.6216 41.2869V41.2704Z" fill="#002D5D"/>
<path d="M92.183 43.91V38.6309H95.9754V38.985H92.578V41.0748H95.6324V41.429H92.578V43.5559H96.0129V43.91H92.183V43.91Z" fill="#002D5D"/>
<path d="M103.629 43.91L102.951 42.4316H99.8052L99.1274 43.91H98.7157L101.198 38.5938H101.579L104.061 43.91H103.629ZM101.381 39.022L99.9715 42.0775H102.783L101.381 39.022Z" fill="#002D5D"/>
<path d="M106.18 38.985V43.91H105.783V38.985H103.924V38.6309H108.037V38.985H106.18V38.985Z" fill="#002D5D"/>
<path d="M109.043 43.91V38.6309H112.835V38.985H109.438V41.0748H112.492V41.429H109.438V43.5559H112.873V43.91H109.043V43.91Z" fill="#002D5D"/>
<path d="M118.083 43.91L114.328 39.2197V43.91H113.948V38.6309H114.322L118 43.2244V38.6309H118.381V43.91H118.083Z" fill="#002D5D"/>
<path d="M123.86 43.4537C123.71 43.5669 123.55 43.6637 123.379 43.744C123.209 43.8243 123.026 43.8881 122.826 43.9334C122.629 43.9787 122.412 44.0014 122.18 44.0014C121.799 44.0014 121.446 43.9314 121.121 43.7893C120.797 43.6493 120.516 43.4557 120.279 43.2128C120.042 42.9698 119.859 42.6816 119.726 42.3501C119.595 42.0186 119.529 41.6644 119.529 41.2856V41.2712C119.529 40.8985 119.595 40.5464 119.73 40.2149C119.865 39.8835 120.05 39.5931 120.285 39.344C120.522 39.0949 120.801 38.8993 121.127 38.7551C121.452 38.611 121.807 38.541 122.194 38.541C122.433 38.541 122.647 38.5616 122.841 38.6007C123.034 38.6419 123.213 38.6996 123.377 38.7737C123.541 38.8499 123.697 38.9384 123.841 39.0413C123.986 39.1443 124.126 39.2596 124.263 39.3852L123.98 39.6714C123.864 39.5602 123.741 39.4573 123.614 39.3625C123.487 39.2678 123.352 39.1855 123.207 39.1175C123.061 39.0496 122.905 38.996 122.735 38.9549C122.564 38.9137 122.381 38.8952 122.182 38.8952C121.861 38.8952 121.564 38.9549 121.29 39.0763C121.015 39.1978 120.778 39.3646 120.579 39.5787C120.379 39.7929 120.221 40.042 120.107 40.3282C119.992 40.6144 119.936 40.9232 119.936 41.2547V41.2691C119.936 41.6006 119.994 41.9115 120.111 42.1998C120.227 42.488 120.385 42.7413 120.587 42.9534C120.786 43.1675 121.026 43.3363 121.298 43.4578C121.572 43.5813 121.87 43.6431 122.19 43.6431C122.577 43.6431 122.911 43.5731 123.196 43.431C123.481 43.291 123.758 43.0872 124.026 42.8195L124.292 43.0769C124.157 43.2169 124.009 43.3404 123.86 43.4537Z" fill="#002D5D"/>
<path d="M125.242 43.91V38.6309H125.639V43.91H125.242Z" fill="#002D5D"/>
<path d="M132.008 42.3087C131.879 42.6382 131.696 42.9285 131.463 43.1797C131.23 43.4309 130.945 43.6306 130.615 43.7788C130.282 43.9271 129.916 44.0012 129.515 44.0012C129.109 44.0012 128.741 43.9271 128.415 43.7788C128.088 43.6306 127.808 43.4309 127.573 43.1838C127.34 42.9347 127.159 42.6464 127.032 42.3211C126.905 41.9937 126.841 41.6499 126.841 41.2875V41.2731C126.841 40.9107 126.905 40.5648 127.034 40.2354C127.163 39.9059 127.346 39.6156 127.579 39.3644C127.812 39.1132 128.095 38.9135 128.425 38.7653C128.756 38.617 129.124 38.5429 129.529 38.5429C129.931 38.5429 130.296 38.617 130.625 38.7653C130.956 38.9135 131.236 39.1112 131.471 39.3603C131.704 39.6094 131.885 39.8977 132.012 40.223C132.139 40.5504 132.203 40.8942 132.203 41.2566C132.207 41.2628 132.207 41.2669 132.203 41.271C132.203 41.6334 132.139 41.9793 132.008 42.3087ZM131.791 41.271C131.791 40.9436 131.735 40.6368 131.621 40.3465C131.507 40.0562 131.349 39.805 131.149 39.593C130.947 39.3788 130.708 39.21 130.43 39.0844C130.151 38.9588 129.845 38.895 129.515 38.895C129.184 38.895 128.881 38.9567 128.604 39.0803C128.327 39.2038 128.088 39.3726 127.889 39.5847C127.689 39.7989 127.531 40.048 127.421 40.3342C127.309 40.6204 127.253 40.9272 127.253 41.2545V41.269C127.253 41.5963 127.311 41.9031 127.423 42.1934C127.537 42.4817 127.695 42.7349 127.895 42.947C128.095 43.1611 128.336 43.33 128.614 43.4556C128.893 43.5812 129.199 43.645 129.529 43.645C129.86 43.645 130.163 43.5832 130.44 43.4597C130.716 43.3362 130.956 43.1673 131.155 42.9552C131.355 42.7411 131.511 42.492 131.623 42.2058C131.735 41.9196 131.791 41.6128 131.791 41.2854V41.271ZM129.4 38.1414L130.07 37.1387L130.533 37.3652L129.718 38.1414H129.4Z" fill="#002D5D"/>
<path d="M137.488 43.91L133.733 39.2197V43.91H133.353V38.6309H133.725L137.403 43.2244V38.6309H137.784V43.91H137.488Z" fill="#002D5D"/>
<path d="M145.005 40.9925C144.892 41.2046 144.743 41.3796 144.551 41.5196C144.36 41.6596 144.14 41.7666 143.888 41.8367C143.637 41.9067 143.37 41.9417 143.092 41.9417H141.653V43.91H141.258V38.6309H143.192C143.487 38.6309 143.753 38.6679 143.994 38.74C144.235 38.812 144.443 38.9191 144.618 39.0571C144.793 39.195 144.93 39.3638 145.025 39.5615C145.121 39.7592 145.171 39.9877 145.171 40.243V40.2574C145.173 40.5375 145.117 40.7804 145.005 40.9925ZM144.776 40.2677C144.776 40.0557 144.736 39.8704 144.657 39.7098C144.578 39.5512 144.468 39.4174 144.327 39.3124C144.185 39.2053 144.015 39.125 143.817 39.0694C143.62 39.0138 143.402 38.985 143.162 38.985H141.655V41.5875H143.117C143.366 41.5875 143.591 41.5566 143.795 41.4969C143.998 41.4372 144.171 41.3487 144.316 41.2354C144.462 41.1222 144.574 40.9842 144.655 40.8216C144.736 40.6589 144.778 40.4798 144.778 40.2821V40.2677H144.776Z" fill="#002D5D"/>
<path d="M149.585 43.1295C149.496 43.3086 149.375 43.461 149.219 43.5866C149.063 43.7122 148.878 43.811 148.664 43.881C148.45 43.951 148.211 43.986 147.953 43.986C147.527 43.986 147.142 43.916 146.799 43.7739C146.456 43.6339 146.125 43.4218 145.805 43.1398L146.065 42.8453C146.213 42.9812 146.358 43.0986 146.504 43.1954C146.649 43.2942 146.797 43.3745 146.949 43.4363C147.1 43.5001 147.26 43.5474 147.429 43.5804C147.597 43.6133 147.778 43.6298 147.978 43.6298C148.175 43.6298 148.358 43.603 148.527 43.5516C148.695 43.498 148.837 43.426 148.953 43.3333C149.069 43.2407 149.161 43.1295 149.227 43.0018C149.294 42.8742 149.327 42.7342 149.327 42.5839V42.5694C149.327 42.4294 149.306 42.3038 149.263 42.1926C149.219 42.0815 149.14 41.9806 149.026 41.892C148.911 41.8014 148.757 41.7191 148.564 41.647C148.371 41.575 148.121 41.507 147.818 41.4473C147.498 41.3814 147.223 41.3052 146.994 41.2167C146.766 41.1282 146.579 41.0252 146.435 40.9079C146.289 40.7905 146.186 40.6525 146.119 40.4961C146.052 40.3396 146.019 40.1625 146.019 39.9607V39.9463C146.019 39.7507 146.063 39.5675 146.148 39.3986C146.235 39.2298 146.354 39.0836 146.506 38.958C146.658 38.8324 146.838 38.7336 147.046 38.6636C147.254 38.5936 147.483 38.5586 147.732 38.5586C148.119 38.5586 148.452 38.6121 148.735 38.7171C149.015 38.8221 149.292 38.9827 149.56 39.1989L149.308 39.5078C149.055 39.2916 148.799 39.1392 148.543 39.0486C148.288 38.958 148.011 38.9127 147.718 38.9127C147.52 38.9127 147.342 38.9395 147.181 38.991C147.021 39.0445 146.884 39.1145 146.77 39.2051C146.655 39.2957 146.568 39.4007 146.508 39.5222C146.448 39.6437 146.416 39.7713 146.416 39.9072V39.9216C146.416 40.0616 146.437 40.1893 146.481 40.3025C146.524 40.4158 146.603 40.5187 146.718 40.6114C146.832 40.704 146.99 40.7884 147.194 40.8646C147.398 40.9408 147.656 41.0108 147.972 41.0767C148.591 41.2023 149.038 41.3794 149.313 41.6079C149.587 41.8365 149.724 42.1453 149.724 42.5324V42.5468C149.718 42.7568 149.674 42.9503 149.585 43.1295Z" fill="#002D5D"/>
<path d="M150.876 43.91V38.6309H151.273V43.91H150.876Z" fill="#002D5D"/>
<path d="M156.806 43.4537C156.656 43.5669 156.496 43.6637 156.325 43.744C156.155 43.8243 155.972 43.8881 155.772 43.9334C155.575 43.9787 155.359 44.0014 155.126 44.0014C154.745 44.0014 154.392 43.9314 154.068 43.7893C153.743 43.6493 153.462 43.4557 153.225 43.2128C152.988 42.9698 152.805 42.6816 152.672 42.3501C152.541 42.0186 152.475 41.6644 152.475 41.2856V41.2712C152.475 40.8985 152.541 40.5464 152.677 40.2149C152.812 39.8835 152.997 39.5931 153.232 39.344C153.469 39.0949 153.747 38.8993 154.074 38.7551C154.398 38.611 154.754 38.541 155.14 38.541C155.379 38.541 155.594 38.5616 155.787 38.6007C155.98 38.6419 156.159 38.6996 156.323 38.7737C156.488 38.8499 156.644 38.9384 156.787 39.0413C156.933 39.1443 157.072 39.2596 157.209 39.3852L156.926 39.6714C156.81 39.5602 156.687 39.4573 156.56 39.3625C156.434 39.2678 156.298 39.1855 156.153 39.1175C156.007 39.0496 155.851 38.996 155.681 38.9549C155.51 38.9137 155.327 38.8952 155.128 38.8952C154.808 38.8952 154.51 38.9549 154.236 39.0763C153.961 39.1978 153.724 39.3646 153.525 39.5787C153.325 39.7929 153.167 40.042 153.053 40.3282C152.939 40.6144 152.882 40.9232 152.882 41.2547V41.2691C152.882 41.6006 152.941 41.9115 153.057 42.1998C153.173 42.488 153.331 42.7413 153.533 42.9534C153.733 43.1675 153.972 43.3363 154.244 43.4578C154.519 43.5813 154.816 43.6431 155.136 43.6431C155.523 43.6431 155.858 43.5731 156.143 43.431C156.427 43.291 156.704 43.0872 156.972 42.8195L157.238 43.0769C157.101 43.2169 156.955 43.3404 156.806 43.4537Z" fill="#002D5D"/>
<path d="M162.913 42.3088C162.784 42.6382 162.601 42.9286 162.368 43.1798C162.135 43.4309 161.85 43.6307 161.52 43.7789C161.187 43.9272 160.821 44.0013 160.42 44.0013C160.014 44.0013 159.646 43.9272 159.32 43.7789C158.993 43.6307 158.713 43.4309 158.478 43.1839C158.245 42.9347 158.064 42.6465 157.937 42.3212C157.81 41.9938 157.746 41.6499 157.746 41.2876V41.2732C157.746 40.9108 157.81 40.5649 157.939 40.2354C158.068 39.906 158.251 39.6157 158.484 39.3645C158.717 39.1133 159 38.9136 159.33 38.7653C159.661 38.6171 160.029 38.543 160.434 38.543C160.836 38.543 161.201 38.6171 161.53 38.7653C161.861 38.9136 162.141 39.1112 162.376 39.3604C162.609 39.6095 162.79 39.8978 162.917 40.2231C163.044 40.5505 163.106 40.8943 163.106 41.2567C163.11 41.2629 163.11 41.267 163.106 41.2711C163.106 41.6335 163.042 41.9794 162.913 42.3088ZM162.696 41.2711C162.696 40.9437 162.64 40.6369 162.526 40.3466C162.412 40.0563 162.254 39.8051 162.054 39.593C161.852 39.3789 161.613 39.2101 161.335 39.0845C161.056 38.9589 160.75 38.895 160.42 38.895C160.089 38.895 159.786 38.9568 159.509 39.0804C159.232 39.2039 158.993 39.3727 158.794 39.5848C158.594 39.7989 158.436 40.0481 158.326 40.3343C158.214 40.6205 158.158 40.9272 158.158 41.2546V41.269C158.158 41.5964 158.216 41.9032 158.328 42.1935C158.442 42.4818 158.6 42.735 158.8 42.9471C159 43.1612 159.241 43.3301 159.519 43.4557C159.798 43.5813 160.104 43.6451 160.434 43.6451C160.765 43.6451 161.068 43.5833 161.345 43.4598C161.621 43.3362 161.861 43.1674 162.06 42.9553C162.26 42.7412 162.416 42.4921 162.528 42.2059C162.64 41.9197 162.696 41.6129 162.696 41.2855V41.2711Z" fill="#002D5D"/>
<path d="M168.004 40.9925C167.892 41.2046 167.742 41.3796 167.551 41.5196C167.36 41.6596 167.139 41.7666 166.888 41.8367C166.636 41.9067 166.37 41.9417 166.091 41.9417H164.653V43.91H164.258V38.6309H166.191C166.486 38.6309 166.753 38.6679 166.994 38.74C167.235 38.812 167.443 38.9191 167.618 39.0571C167.792 39.195 167.929 39.3638 168.025 39.5615C168.121 39.7592 168.171 39.9877 168.171 40.243V40.2574C168.171 40.5375 168.114 40.7804 168.004 40.9925ZM167.776 40.2677C167.776 40.0557 167.736 39.8704 167.657 39.7098C167.578 39.5512 167.468 39.4174 167.326 39.3124C167.185 39.2053 167.015 39.125 166.817 39.0694C166.62 39.0138 166.401 38.985 166.162 38.985H164.655V41.5875H166.116C166.366 41.5875 166.59 41.5566 166.794 41.4969C166.998 41.4372 167.17 41.3487 167.316 41.2354C167.462 41.1222 167.574 40.9842 167.655 40.8216C167.736 40.6589 167.778 40.4798 167.778 40.2821V40.2677H167.776Z" fill="#002D5D"/>
<path d="M169.146 43.91V38.6309H172.938V38.985H169.541V41.0748H172.595V41.429H169.541V43.5559H172.976V43.91H169.146V43.91Z" fill="#002D5D"/>
<path d="M178.452 42.3102C178.315 42.6314 178.122 42.9114 177.87 43.1482C177.618 43.385 177.319 43.5703 176.972 43.7062C176.625 43.8421 176.242 43.91 175.826 43.91H174.053V38.6309H175.826C176.242 38.6309 176.625 38.6967 176.972 38.8306C177.319 38.9644 177.618 39.1477 177.87 39.3844C178.122 39.6212 178.315 39.8992 178.452 40.2183C178.589 40.5375 178.658 40.8834 178.658 41.256V41.2704C178.658 41.6431 178.589 41.989 178.452 42.3102ZM178.246 41.2704C178.246 40.9575 178.19 40.663 178.076 40.3851C177.961 40.1071 177.799 39.8662 177.591 39.6583C177.383 39.4524 177.13 39.2877 176.83 39.1662C176.531 39.0447 176.196 38.985 175.826 38.985H174.448V43.5559H175.826C176.196 43.5559 176.531 43.4962 176.83 43.3788C177.13 43.2594 177.383 43.0988 177.591 42.895C177.799 42.6911 177.961 42.4502 178.076 42.1764C178.19 41.9005 178.246 41.606 178.246 41.2869V41.2704Z" fill="#002D5D"/>
<path d="M183.921 43.91L183.243 42.4316H180.097L179.419 43.91H179.007L181.49 38.5938H181.87L184.353 43.91H183.921ZM181.673 39.022L180.265 42.0775H183.076L181.673 39.022Z" fill="#002D5D"/>
<path d="M188.615 43.7645C188.257 43.923 187.86 44.0013 187.424 44.0013C187.002 44.0013 186.625 43.9292 186.293 43.7871C185.96 43.643 185.679 43.4495 185.451 43.2024C185.222 42.9553 185.047 42.6691 184.925 42.3397C184.802 42.0103 184.742 41.6602 184.742 41.2876V41.2732C184.742 40.917 184.804 40.5731 184.929 40.2437C185.053 39.9142 185.23 39.6239 185.461 39.3727C185.692 39.1215 185.97 38.9198 186.295 38.7695C186.619 38.6191 186.981 38.543 187.376 38.543C187.594 38.543 187.794 38.5574 187.975 38.5883C188.156 38.6192 188.322 38.6644 188.478 38.7242C188.632 38.7839 188.779 38.858 188.919 38.9424C189.058 39.0268 189.193 39.1257 189.326 39.2368L189.066 39.5313C188.858 39.3501 188.621 39.1998 188.355 39.0783C188.089 38.9568 187.754 38.8971 187.353 38.8971C187.029 38.8971 186.731 38.9609 186.461 39.0865C186.193 39.2121 185.96 39.383 185.765 39.5992C185.569 39.8154 185.417 40.0666 185.311 40.3528C185.205 40.639 185.151 40.9396 185.151 41.2567V41.2711C185.151 41.6129 185.203 41.9279 185.307 42.2203C185.411 42.5106 185.563 42.7618 185.76 42.9739C185.958 43.1839 186.199 43.3506 186.48 43.4701C186.76 43.5895 187.081 43.6513 187.436 43.6513C187.605 43.6513 187.769 43.6348 187.931 43.6018C188.093 43.5689 188.247 43.5257 188.393 43.4701C188.538 43.4145 188.673 43.3506 188.8 43.2786C188.927 43.2065 189.039 43.1303 189.135 43.05V41.5388H187.353V41.1805H189.515V43.2106C189.274 43.4227 188.973 43.606 188.615 43.7645Z" fill="#002D5D"/>
<path d="M195.683 42.3087C195.554 42.6382 195.371 42.9285 195.138 43.1797C194.905 43.4309 194.62 43.6306 194.29 43.7788C193.957 43.9271 193.591 44.0012 193.19 44.0012C192.784 44.0012 192.416 43.9271 192.09 43.7788C191.764 43.6306 191.483 43.4309 191.248 43.1838C191.015 42.9347 190.834 42.6464 190.707 42.3211C190.58 41.9937 190.516 41.6499 190.516 41.2875V41.2731C190.516 40.9107 190.58 40.5648 190.709 40.2354C190.838 39.9059 191.021 39.6156 191.254 39.3644C191.487 39.1132 191.77 38.9135 192.1 38.7653C192.431 38.617 192.799 38.5429 193.204 38.5429C193.606 38.5429 193.972 38.617 194.3 38.7653C194.631 38.9135 194.911 39.1112 195.146 39.3603C195.379 39.6094 195.56 39.8977 195.687 40.223C195.814 40.5504 195.878 40.8942 195.878 41.2566C195.882 41.2628 195.882 41.2669 195.878 41.271C195.878 41.6334 195.814 41.9793 195.683 42.3087ZM195.467 41.271C195.467 40.9436 195.41 40.6368 195.296 40.3465C195.182 40.0562 195.024 39.805 194.824 39.593C194.622 39.3788 194.383 39.21 194.105 39.0844C193.826 38.9588 193.52 38.895 193.19 38.895C192.859 38.895 192.556 38.9567 192.279 39.0803C192.003 39.2038 191.764 39.3726 191.564 39.5847C191.364 39.7989 191.206 40.048 191.096 40.3342C190.984 40.6204 190.928 40.9272 190.928 41.2545V41.269C190.928 41.5963 190.986 41.9031 191.098 42.1934C191.213 42.4817 191.371 42.7349 191.57 42.947C191.77 43.1611 192.011 43.33 192.29 43.4556C192.568 43.5812 192.874 43.645 193.204 43.645C193.535 43.645 193.839 43.5832 194.115 43.4597C194.392 43.3362 194.631 43.1673 194.83 42.9552C195.03 42.7411 195.186 42.492 195.298 42.2058C195.41 41.9196 195.467 41.6128 195.467 41.2854V41.271ZM193.075 38.1414L193.745 37.1387L194.209 37.3652L193.394 38.1414H193.075Z" fill="#002D5D"/>
<path d="M200.664 43.7645C200.307 43.923 199.91 44.0013 199.473 44.0013C199.051 44.0013 198.675 43.9292 198.342 43.7871C198.009 43.643 197.728 43.4495 197.5 43.2024C197.271 42.9553 197.096 42.6691 196.974 42.3397C196.851 42.0103 196.791 41.6602 196.791 41.2876V41.2732C196.791 40.917 196.853 40.5731 196.978 40.2437C197.103 39.9142 197.279 39.6239 197.51 39.3727C197.741 39.1215 198.02 38.9198 198.344 38.7695C198.668 38.6191 199.03 38.543 199.425 38.543C199.643 38.543 199.843 38.5574 200.024 38.5883C200.205 38.6192 200.371 38.6644 200.527 38.7242C200.681 38.7839 200.829 38.858 200.968 38.9424C201.107 39.0268 201.242 39.1257 201.375 39.2368L201.116 39.5313C200.908 39.3501 200.671 39.1998 200.404 39.0783C200.138 38.9568 199.804 38.8971 199.402 38.8971C199.078 38.8971 198.781 38.9609 198.51 39.0865C198.242 39.2121 198.009 39.383 197.814 39.5992C197.618 39.8154 197.467 40.0666 197.36 40.3528C197.254 40.639 197.2 40.9396 197.2 41.2567V41.2711C197.2 41.6129 197.252 41.9279 197.356 42.2203C197.46 42.5106 197.612 42.7618 197.81 42.9739C198.007 43.1839 198.248 43.3506 198.529 43.4701C198.81 43.5895 199.13 43.6513 199.485 43.6513C199.654 43.6513 199.818 43.6348 199.98 43.6018C200.142 43.5689 200.296 43.5257 200.442 43.4701C200.587 43.4145 200.723 43.3506 200.849 43.2786C200.976 43.2065 201.088 43.1303 201.184 43.05V41.5388H199.402V41.1805H201.565V43.2106C201.323 43.4227 201.022 43.606 200.664 43.7645Z" fill="#002D5D"/>
<path d="M202.854 43.91V38.6309H203.251V43.91H202.854Z" fill="#002D5D"/>
<path d="M208.781 43.4537C208.632 43.5669 208.472 43.6637 208.301 43.744C208.131 43.8243 207.948 43.8881 207.748 43.9334C207.551 43.9787 207.334 44.0014 207.101 44.0014C206.721 44.0014 206.367 43.9314 206.043 43.7893C205.719 43.6493 205.438 43.4557 205.201 43.2128C204.964 42.9698 204.781 42.6816 204.648 42.3501C204.517 42.0186 204.45 41.6644 204.45 41.2856V41.2712C204.45 40.8985 204.517 40.5464 204.652 40.2149C204.787 39.8835 204.972 39.5931 205.207 39.344C205.444 39.0949 205.723 38.8993 206.049 38.7551C206.374 38.611 206.729 38.541 207.116 38.541C207.355 38.541 207.569 38.5616 207.763 38.6007C207.956 38.6419 208.135 38.6996 208.299 38.7737C208.463 38.8499 208.619 38.9384 208.763 39.0413C208.908 39.1443 209.048 39.2596 209.185 39.3852L208.902 39.6714C208.786 39.5602 208.663 39.4573 208.536 39.3625C208.409 39.2678 208.274 39.1855 208.129 39.1175C207.983 39.0496 207.827 38.996 207.657 38.9549C207.486 38.9137 207.303 38.8952 207.103 38.8952C206.783 38.8952 206.486 38.9549 206.212 39.0763C205.937 39.1978 205.7 39.3646 205.5 39.5787C205.301 39.7929 205.143 40.042 205.028 40.3282C204.914 40.6144 204.858 40.9232 204.858 41.2547V41.2691C204.858 41.6006 204.916 41.9115 205.033 42.1998C205.149 42.488 205.307 42.7413 205.509 42.9534C205.708 43.1675 205.947 43.3363 206.22 43.4578C206.494 43.5813 206.792 43.6431 207.112 43.6431C207.499 43.6431 207.833 43.5731 208.116 43.431C208.401 43.291 208.677 43.0872 208.946 42.8195L209.212 43.0769C209.077 43.2169 208.931 43.3404 208.781 43.4537Z" fill="#002D5D"/>
<path d="M214.566 43.91L213.888 42.4316H210.742L210.064 43.91H209.652L212.135 38.5938H212.515L214.998 43.91H214.566ZM212.32 39.022L210.91 42.0775H213.721L212.32 39.022Z" fill="#002D5D"/>
<path d="M34.9135 0.506195C34.9135 0.506195 34.9093 0.504136 34.9052 0.500018C34.9177 0.504136 34.926 0.506195 34.926 0.506195C34.3251 0.176761 33.9945 0.127346 33.5558 0.15823C27.9524 0.553551 27.4679 9.18472 27.4679 9.18472C26.6092 20.6655 20.6794 21.2646 20.0619 21.2955C20.0432 21.2955 20.0224 21.2976 20.0037 21.2976C20.0037 21.1164 20.0037 20.8899 20.0037 20.612C20.0037 18.8845 20.0037 15.271 20.0037 9.63975C20.0037 1.39361 23.9812 2.59398 23.9812 2.59398V1.29889H17.7062H11.4312V2.59398C11.4312 2.59398 15.4087 1.39361 15.4087 9.63975C15.4087 15.271 15.4087 18.8845 15.4087 20.612C15.4087 20.8899 15.4087 21.1143 15.4087 21.2976C14.8494 21.3141 13.9429 21.2729 12.9365 20.964C13.6601 21.1761 14.4751 21.2976 15.39 21.2976C15.0095 21.2873 8.68045 20.9332 7.78224 9.18472C7.78224 9.18472 7.2874 0.553551 1.55509 0.15823C1.2141 0.135582 0.935491 0.15823 0.550842 0.31677C0.307577 0.407364 0.151638 0.506195 0.151638 0.506195C-0.418058 0.969461 0.746285 1.66951 1.41786 2.30161C1.92726 2.78135 2.34102 3.68317 2.50735 4.39145C3.11032 6.9528 3.13735 10.8875 3.13735 10.8875C3.3515 15.0857 4.84643 17.9044 4.84643 17.9044C8.05669 23.2907 13.6123 23.5645 15.4066 23.5007C15.4066 25.5123 15.4066 28.5863 15.4066 32.7845C15.4066 41.0307 11.4291 39.8282 11.4291 39.8282V41.1233H17.7041H23.9812V39.8282C23.9812 39.8282 20.0037 41.0307 20.0037 32.7845C20.0037 28.5904 20.0037 25.5185 20.0037 23.5089C22.087 23.5151 27.1935 22.9756 30.2187 17.9044C30.2187 17.9044 31.7116 15.0857 31.9278 10.8875C31.9278 10.8875 31.9569 6.9528 32.5578 4.39145C32.7262 3.68317 33.1358 2.78135 33.6452 2.30161C34.3189 1.66951 35.4832 0.969461 34.9135 0.506195ZM12.9282 20.9599C12.9199 20.9579 12.9116 20.9537 12.9033 20.9517C12.9116 20.9537 12.9199 20.9579 12.9282 20.9599Z" fill="#002D5D"/>
</g>
<defs>
<clipPath id="clip0_301_1773">
<rect width="215" height="44" fill="white"/>
</clipPath>
</defs>
</svg>
