<svg width="14" height="14" viewBox="0 0 14 14" fill="none" xmlns="http://www.w3.org/2000/svg">
<path d="M6.33337 11.0002H7.66671V9.66683H6.33337V11.0002ZM7.00004 0.333496C6.12456 0.333496 5.25766 0.505935 4.44882 0.840966C3.63998 1.176 2.90505 1.66706 2.286 2.28612C1.03575 3.53636 0.333374 5.23205 0.333374 7.00016C0.333374 8.76827 1.03575 10.464 2.286 11.7142C2.90505 12.3333 3.63998 12.8243 4.44882 13.1594C5.25766 13.4944 6.12456 13.6668 7.00004 13.6668C8.76815 13.6668 10.4638 12.9645 11.7141 11.7142C12.9643 10.464 13.6667 8.76827 13.6667 7.00016C13.6667 6.12468 13.4943 5.25778 13.1592 4.44894C12.8242 3.6401 12.3331 2.90517 11.7141 2.28612C11.095 1.66706 10.3601 1.176 9.55126 0.840966C8.74243 0.505935 7.87552 0.333496 7.00004 0.333496ZM7.00004 12.3335C4.06004 12.3335 1.66671 9.94016 1.66671 7.00016C1.66671 4.06016 4.06004 1.66683 7.00004 1.66683C9.94004 1.66683 12.3334 4.06016 12.3334 7.00016C12.3334 9.94016 9.94004 12.3335 7.00004 12.3335ZM7.00004 3.00016C6.2928 3.00016 5.61452 3.28111 5.11442 3.78121C4.61433 4.28131 4.33337 4.95959 4.33337 5.66683H5.66671C5.66671 5.31321 5.80718 4.97407 6.05723 4.72402C6.30728 4.47397 6.64642 4.3335 7.00004 4.3335C7.35366 4.3335 7.6928 4.47397 7.94285 4.72402C8.1929 4.97407 8.33337 5.31321 8.33337 5.66683C8.33337 7.00016 6.33337 6.8335 6.33337 9.00016H7.66671C7.66671 7.50016 9.66671 7.3335 9.66671 5.66683C9.66671 4.95959 9.38576 4.28131 8.88566 3.78121C8.38556 3.28111 7.70728 3.00016 7.00004 3.00016Z" fill="#E14504"/>
</svg>
