<svg width="16" height="16" viewBox="0 0 16 16" fill="none" xmlns="http://www.w3.org/2000/svg">
<path d="M7.33301 12H8.66634V10.6666H7.33301V12ZM7.99967 1.33331C7.1242 1.33331 6.25729 1.50575 5.44845 1.84078C4.63961 2.17581 3.90469 2.66688 3.28563 3.28593C2.03539 4.53618 1.33301 6.23187 1.33301 7.99998C1.33301 9.76809 2.03539 11.4638 3.28563 12.714C3.90469 13.3331 4.63961 13.8241 5.44845 14.1592C6.25729 14.4942 7.1242 14.6666 7.99967 14.6666C9.76778 14.6666 11.4635 13.9643 12.7137 12.714C13.964 11.4638 14.6663 9.76809 14.6663 7.99998C14.6663 7.1245 14.4939 6.25759 14.1589 5.44876C13.8238 4.63992 13.3328 3.90499 12.7137 3.28593C12.0947 2.66688 11.3597 2.17581 10.5509 1.84078C9.74206 1.50575 8.87515 1.33331 7.99967 1.33331V1.33331ZM7.99967 13.3333C5.05967 13.3333 2.66634 10.94 2.66634 7.99998C2.66634 5.05998 5.05967 2.66665 7.99967 2.66665C10.9397 2.66665 13.333 5.05998 13.333 7.99998C13.333 10.94 10.9397 13.3333 7.99967 13.3333ZM7.99967 3.99998C7.29243 3.99998 6.61415 4.28093 6.11406 4.78103C5.61396 5.28113 5.33301 5.9594 5.33301 6.66665H6.66634C6.66634 6.31302 6.80682 5.97389 7.05687 5.72384C7.30691 5.47379 7.64605 5.33331 7.99967 5.33331C8.3533 5.33331 8.69243 5.47379 8.94248 5.72384C9.19253 5.97389 9.33301 6.31302 9.33301 6.66665C9.33301 7.99998 7.33301 7.83331 7.33301 9.99998H8.66634C8.66634 8.49998 10.6663 8.33331 10.6663 6.66665C10.6663 5.9594 10.3854 5.28113 9.88529 4.78103C9.3852 4.28093 8.70692 3.99998 7.99967 3.99998Z" fill="#1E77B1"/>
</svg>
