<svg id="Capa_1" data-name="Capa 1" xmlns="http://www.w3.org/2000/svg" viewBox="0 0 290 79"><defs><style>.cls-1{fill:#fff;}</style></defs><title>preparatoria-indoamericano-logo-footer</title><path class="cls-1" d="M8.86,36.5c0-1.55,0-2.94-.06-4.19s-.1-2.53-.16-3.83l1,.08c.34,0,.74.05,1.18.05s.8,0,1.16-.05l1-.08c-.09,1-.15,1.93-.18,2.87s0,1.93,0,3V43c0,1,0,2,0,3s.09,1.88.18,2.83l-1-.09c-.36,0-.74,0-1.16,0s-.84,0-1.18,0l-1,.09.09-1.87c.06-1,.1-1.92.11-2.9s0-2.07,0-3.26Z"/><path class="cls-1" d="M8.39,49l.11-2.14c.05-1,.09-1.92.11-2.89s0-2.07,0-3.26V36.5c0-1.53,0-2.94-.07-4.18s-.09-2.53-.15-3.83l0-.27.27,0,1,.09a14.71,14.71,0,0,0,2.3,0l1-.09.28,0,0,.28c-.09,1-.15,1.94-.18,2.86s0,1.92,0,3V43c0,1,0,2,0,3s.09,1.87.18,2.82l0,.28-.29,0-1-.09a16,16,0,0,0-2.3,0L8.67,49Zm2.39-.63c.42,0,.82,0,1.18,0l.75.06c-.08-.86-.13-1.72-.16-2.56s0-1.93,0-3V34.32c0-1,0-2,0-3s.08-1.71.16-2.61L12,28.8a15.75,15.75,0,0,1-2.38,0l-.69-.06c0,1.21.1,2.4.14,3.56S9.1,35,9.1,36.5v4.23c0,1.19,0,2.28,0,3.26S9,46,9,46.9l-.07,1.6.69-.06C9.92,48.41,10.33,48.39,10.78,48.39Z"/><path class="cls-1" d="M37.71,48.85l-.47-.07-.47,0-.47,0-.38.07q-3.21-3.75-6.55-7.38t-6.86-7.38c0,.33-.05.69-.05,1.07V39q0,4.19.05,6.53c0,1.56.07,2.63.13,3.23a6.32,6.32,0,0,0-1.25-.13,6.76,6.76,0,0,0-1.34.13c0-.24.08-.85.16-1.83s.15-2.15.22-3.5.14-2.79.18-4.32.07-3,.07-4.35,0-2.7-.05-3.74-.06-1.92-.09-2.63l.52.06a4.12,4.12,0,0,0,.51,0,4.58,4.58,0,0,0,.53,0,5,5,0,0,0,.54-.06q3.21,3.69,6.69,7.44t6.59,7v-6.1c0-1.19,0-2.32,0-3.39s0-2-.07-2.9-.06-1.53-.08-2a5.81,5.81,0,0,0,1.2.13,6.72,6.72,0,0,0,1.25-.13c-.12,1.66-.22,3.33-.29,5S37.8,36.68,37.8,38c0,.83-.06,1.69-.07,2.58s0,1.81,0,2.76Z"/><path class="cls-1" d="M37.94,49.13l-.27-.05L37.21,49a6.46,6.46,0,0,0-.88,0l-.35.07-.14,0L35.75,49c-2.13-2.48-4.33-5-6.55-7.37s-4.27-4.61-6.5-7V39c0,2.78,0,5,0,6.52s.07,2.63.13,3.22l0,.31L22.59,49a6,6,0,0,0-2.49,0l-.32.06,0-.32c0-.24.08-.85.16-1.82s.14-2.16.22-3.49.13-2.81.18-4.32.06-3,.06-4.34,0-2.69,0-3.74-.06-1.91-.09-2.62v-.29l.28,0a4.61,4.61,0,0,0,.5.07,5.56,5.56,0,0,0,1,0,4.34,4.34,0,0,0,.52-.07l.13,0,.09.1c2.12,2.45,4.36,4.95,6.68,7.44,2.15,2.32,4.23,4.54,6.19,6.61V36.77c0-1.19,0-2.32,0-3.39s0-2-.07-2.89-.06-1.53-.09-2l0-.31.31.07a5.48,5.48,0,0,0,2.35,0l.3-.07,0,.31c-.12,1.67-.22,3.35-.29,5S38,36.68,38,38c0,.83-.05,1.69-.07,2.58s0,1.82,0,2.76ZM22.32,33.55l.36.38c2.35,2.51,4.66,5,6.86,7.38s4.37,4.83,6.47,7.28l.27,0a5.46,5.46,0,0,1,1,0l.2,0V43.36c0-1,0-1.87,0-2.76s0-1.76.07-2.59c0-1.33,0-2.86.11-4.53s.16-3.15.27-4.72a5.74,5.74,0,0,1-1.94,0c0,.45,0,1,.07,1.71,0,.87,0,1.83.07,2.91s0,2.2,0,3.39v6.69L35.75,43c-2.07-2.2-4.29-4.57-6.6-7s-4.5-4.93-6.6-7.35l-.43.05a6.61,6.61,0,0,1-1.09,0l-.24,0c0,.66.05,1.44.08,2.35s0,2.32,0,3.75,0,2.82-.06,4.35-.11,3-.18,4.33S20.52,46,20.44,47c-.05.69-.09,1.2-.12,1.52a6.77,6.77,0,0,1,2.06,0c-.05-.63-.08-1.62-.11-2.94,0-1.55,0-3.74,0-6.53V35.16c0-.39,0-.76,0-1.09Z"/><path class="cls-1" d="M45.51,36.5c0-1.55,0-2.94-.09-4.19s-.12-2.53-.18-3.83l1.36.08c.49,0,1,.05,1.58.05s1.38,0,2.16-.07,1.77-.06,2.92-.06a18.73,18.73,0,0,1,4.57.51,8.75,8.75,0,0,1,3.44,1.65,7.44,7.44,0,0,1,2.16,3,11.77,11.77,0,0,1,.76,4.46,11.29,11.29,0,0,1-.87,4.57,10,10,0,0,1-5.62,5.42,10.59,10.59,0,0,1-3.81.71c-1.28,0-2.39,0-3.32-.07s-1.78-.06-2.52-.06c-.54,0-1,0-1.52,0l-1.29.09.09-1.87c.06-1,.1-1.91.13-2.88s0-2.06,0-3.28Zm3.79,6.29V45.3c0,.41,0,.76,0,1.07a5.46,5.46,0,0,0,.07.74l1.22.09c.49,0,1,0,1.67,0a8.93,8.93,0,0,0,3.06-.51,6.25,6.25,0,0,0,2.45-1.63,7.6,7.6,0,0,0,1.63-2.85A13.67,13.67,0,0,0,60,38a8.22,8.22,0,0,0-2-6,6.93,6.93,0,0,0-5.19-2c-.74,0-1.38,0-1.9.06s-1,.08-1.53.11A12.48,12.48,0,0,0,49.3,32V42.79Z"/><path class="cls-1" d="M45,49l.1-2.13c.06-1,.11-1.91.14-2.88s0-2.06,0-3.27V36.5c0-1.53,0-2.94-.09-4.18s-.12-2.53-.17-3.83l0-.27.27,0,1.35.09a33.28,33.28,0,0,0,3.72,0c.78,0,1.77-.07,2.93-.07a19.28,19.28,0,0,1,4.63.52,9,9,0,0,1,3.52,1.7,7.5,7.5,0,0,1,2.24,3,12,12,0,0,1,.77,4.55,11.53,11.53,0,0,1-.89,4.66,10.31,10.31,0,0,1-2.37,3.42,10.11,10.11,0,0,1-3.38,2.12,10.61,10.61,0,0,1-3.89.73c-1.27,0-2.4,0-3.33-.06a36.36,36.36,0,0,0-4,0L45.26,49Zm3.06-.62c.74,0,1.59,0,2.53.07s2,.06,3.31.06a10.4,10.4,0,0,0,3.73-.69,10.15,10.15,0,0,0,3.22-2,9.81,9.81,0,0,0,2.26-3.26A11.05,11.05,0,0,0,64,38.06a11.54,11.54,0,0,0-.74-4.37,7.22,7.22,0,0,0-2.09-2.87,8.66,8.66,0,0,0-3.34-1.6,18.37,18.37,0,0,0-4.52-.51c-1.15,0-2.13,0-2.9.07a34.36,34.36,0,0,1-3.78,0l-1.09-.07c0,1.21.11,2.4.16,3.57s.09,2.66.09,4.2v4.23c0,1.21,0,2.31,0,3.29s-.08,1.94-.14,2.88l-.07,1.6,1-.06C47,48.41,47.51,48.39,48.05,48.39Zm4.23-.91c-.62,0-1.19,0-1.68,0l-1.24-.09h-.18l0-.18c0-.19,0-.45-.07-.77s0-.67,0-1.08V32a12.88,12.88,0,0,1,.09-1.84l0-.19h.19l1.53-.11c.53-.05,1.17-.07,1.92-.07a7.21,7.21,0,0,1,5.36,2.1,8.44,8.44,0,0,1,2,6.12,13.83,13.83,0,0,1-.59,4.3A7.86,7.86,0,0,1,58,45.26,6.52,6.52,0,0,1,55.42,47,9.12,9.12,0,0,1,52.28,47.48Zm-2.69-.59c.29,0,.64,0,1,.07s1,0,1.65,0a8.71,8.71,0,0,0,3-.5,6.08,6.08,0,0,0,2.36-1.57,7.32,7.32,0,0,0,1.57-2.76A13.27,13.27,0,0,0,59.76,38a8,8,0,0,0-1.92-5.79,6.73,6.73,0,0,0-5-2c-.73,0-1.36,0-1.88.07l-1.35.1A15.23,15.23,0,0,0,49.53,32V45.3c0,.4,0,.75,0,1.06S49.58,46.75,49.59,46.89Z"/><path class="cls-1" d="M69,38.64a10.68,10.68,0,0,1,.8-4.17A9.84,9.84,0,0,1,72,31.11a10.17,10.17,0,0,1,3.55-2.23,12.57,12.57,0,0,1,4.61-.81,14.22,14.22,0,0,1,4.37.67,10,10,0,0,1,3.54,2A9,9,0,0,1,90.46,34a11.24,11.24,0,0,1,.87,4.56,10.53,10.53,0,0,1-.84,4.22,10.28,10.28,0,0,1-2.34,3.34,11,11,0,0,1-3.55,2.21,12.19,12.19,0,0,1-4.46.8,15.2,15.2,0,0,1-4.43-.62,9.84,9.84,0,0,1-3.54-1.94,9,9,0,0,1-2.37-3.3A11.89,11.89,0,0,1,69,38.64Zm18-.49q0-4.14-1.92-6.33a6.23,6.23,0,0,0-4.91-2.19,6.14,6.14,0,0,0-2.87.67,6.22,6.22,0,0,0-2.16,1.9,8.85,8.85,0,0,0-1.36,2.92,13.93,13.93,0,0,0-.47,3.7,13.44,13.44,0,0,0,.53,4,7.42,7.42,0,0,0,1.45,2.68A5.51,5.51,0,0,0,77.38,47a7.1,7.1,0,0,0,2.59.47A6.45,6.45,0,0,0,82.66,47a6,6,0,0,0,2.23-1.71,8.67,8.67,0,0,0,1.52-2.92A14,14,0,0,0,87,38.15Z"/><path class="cls-1" d="M80.14,49.39a15.34,15.34,0,0,1-4.5-.63,9.8,9.8,0,0,1-3.63-2,9.09,9.09,0,0,1-2.42-3.38,12,12,0,0,1-.87-4.75,11.18,11.18,0,0,1,.82-4.26,10.17,10.17,0,0,1,2.33-3.44,10.68,10.68,0,0,1,3.62-2.28,12.81,12.81,0,0,1,4.7-.82,14.33,14.33,0,0,1,4.44.68,10.31,10.31,0,0,1,3.63,2,9.65,9.65,0,0,1,2.42,3.38,11.6,11.6,0,0,1,.89,4.66,10.64,10.64,0,0,1-.87,4.31,10.24,10.24,0,0,1-2.39,3.42,11.44,11.44,0,0,1-3.62,2.26A12.51,12.51,0,0,1,80.14,49.39Zm0-21.08a12.34,12.34,0,0,0-4.53.79,10.32,10.32,0,0,0-3.47,2.17A9.91,9.91,0,0,0,70,34.56a10.63,10.63,0,0,0-.78,4.08A11.65,11.65,0,0,0,70,43.21a8.77,8.77,0,0,0,2.3,3.21,9.39,9.39,0,0,0,3.46,1.89,14.72,14.72,0,0,0,4.36.62,12,12,0,0,0,4.38-.79A10.78,10.78,0,0,0,88,46a10,10,0,0,0,2.28-3.27,10.18,10.18,0,0,0,.83-4.12,11.17,11.17,0,0,0-.85-4.47A9.17,9.17,0,0,0,88,30.9,9.79,9.79,0,0,0,84.48,29,13.67,13.67,0,0,0,80.19,28.31ZM80,47.75a7.32,7.32,0,0,1-2.67-.49,5.71,5.71,0,0,1-2.21-1.55A7.81,7.81,0,0,1,73.59,43,13.68,13.68,0,0,1,73,38.82a14.38,14.38,0,0,1,.48-3.76,9.24,9.24,0,0,1,1.4-3,6.45,6.45,0,0,1,2.24-2,6.24,6.24,0,0,1,3-.7,6.46,6.46,0,0,1,5.08,2.26c1.32,1.5,2,3.68,2,6.49a14.08,14.08,0,0,1-.57,4.24,8.86,8.86,0,0,1-1.56,3,6.45,6.45,0,0,1-2.31,1.78A6.94,6.94,0,0,1,80,47.75Zm.17-17.88a5.82,5.82,0,0,0-2.76.64,6,6,0,0,0-2.08,1.83A8.78,8.78,0,0,0,74,35.18a14,14,0,0,0-.46,3.64,13,13,0,0,0,.53,4,6.94,6.94,0,0,0,1.4,2.59,5.07,5.07,0,0,0,2,1.43,6.86,6.86,0,0,0,2.5.46,6.54,6.54,0,0,0,2.6-.54,5.83,5.83,0,0,0,2.14-1.65,8.36,8.36,0,0,0,1.47-2.84,13.52,13.52,0,0,0,.55-4.1c0-2.69-.62-4.77-1.86-6.18A6,6,0,0,0,80.14,29.87Z"/><path class="cls-1" d="M102.39,28.25l.47.09a2.12,2.12,0,0,0,.47.05,1.93,1.93,0,0,0,.42-.05l.47-.09q.93,2.55,2,5.46t2.25,5.73c.76,1.87,1.48,3.63,2.18,5.26s1.32,3,1.85,4.06l-.71-.07-.67,0a3.09,3.09,0,0,0-.58,0h-.53l-2,.13c-.33-1-.69-2.07-1.1-3.19s-.81-2.22-1.22-3.32c-.33,0-.64,0-.94,0H99.54a7.32,7.32,0,0,0-.81,0,67.4,67.4,0,0,0-2.23,6.51l-.66-.09a5.46,5.46,0,0,0-1.32,0l-.69.09,1.72-4c.69-1.64,1.44-3.39,2.23-5.26s1.58-3.79,2.38-5.75S101.71,30,102.39,28.25Zm2.72,12.4-2.81-7.14c-.51,1.16-1,2.34-1.47,3.55s-.94,2.4-1.38,3.59Z"/><path class="cls-1" d="M93.45,49l1.88-4.39q1-2.44,2.23-5.25c.79-1.88,1.58-3.79,2.38-5.75s1.55-3.79,2.23-5.49l.07-.17.19,0,.48.09a1.91,1.91,0,0,0,.79,0l.48-.09.19,0,.07.18c.63,1.72,1.32,3.55,2,5.46s1.48,3.84,2.25,5.72,1.49,3.66,2.18,5.26,1.31,3,1.84,4l.2.39-.43,0-.71-.06c-.2,0-.42,0-.65,0a3.45,3.45,0,0,0-.58,0h-.53l-2.22.14-.06-.17c-.33-1-.7-2.1-1.09-3.18s-.77-2.13-1.17-3.18l-.77,0H99.54c-.21,0-.43,0-.64,0a65.77,65.77,0,0,0-2.17,6.35l0,.2-.21,0-.67-.09a4.74,4.74,0,0,0-1.25,0ZM99.54,42h5.21c.3,0,.62,0,1,.05h.15l0,.14,1.23,3.32c.36,1,.71,2,1,3l1.87-.12h.55a3.56,3.56,0,0,1,.63,0c.2,0,.42,0,.64,0l.3,0c-.5-1-1.06-2.24-1.67-3.69s-1.42-3.37-2.19-5.26-1.52-3.82-2.25-5.73-1.37-3.62-2-5.28l-.26.05a2.53,2.53,0,0,1-1,0l-.27-.05-2.16,5.3c-.81,2-1.6,3.88-2.39,5.76s-1.53,3.62-2.23,5.26l-1.55,3.63.28,0a4.9,4.9,0,0,1,1.38,0l.46.06a66.08,66.08,0,0,1,2.19-6.34l0-.13h.14A7.7,7.7,0,0,1,99.54,42Zm5.91-1.09H99.11l.12-.32c.46-1.22.92-2.43,1.38-3.59s1-2.39,1.48-3.55l.22-.52Zm-5.66-.47h5l-2.47-6.28c-.42,1-.84,2-1.24,3S100.2,39.3,99.79,40.41Z"/><path class="cls-1" d="M119.33,28.39a3.35,3.35,0,0,0,.47.06,4.12,4.12,0,0,0,.51,0l.45,0,.49-.06q1.68,3.73,3.56,7.49T128.47,43l1.67-3.18c.61-1.18,1.23-2.41,1.87-3.7s1.29-2.6,1.94-3.9,1.28-2.57,1.87-3.79a4.76,4.76,0,0,0,.94.09l.47,0,.51-.06q.27,2.63.58,5.46c.21,1.88.42,3.73.65,5.55s.44,3.53.66,5.15.44,3,.65,4.21l-.65-.07-.6,0-.58,0a4.61,4.61,0,0,0-.53,0l-2,.13c-.06-.86-.14-1.92-.23-3.17s-.18-2.53-.29-3.85-.23-2.61-.37-3.86-.29-2.3-.41-3.16q-1.77,3.51-3.47,7t-3.35,7a.9.9,0,0,1-.24,0l-.2,0-.25,0a.71.71,0,0,1-.2,0c-1.07-2.31-2.17-4.61-3.3-6.88s-2.27-4.57-3.43-6.89c-.36,2.32-.63,4.67-.82,7.07s-.35,4.64-.47,6.75a6.16,6.16,0,0,0-1.3-.13,7,7,0,0,0-1.29.13c.6-3.39,1.15-6.78,1.65-10.19S118.94,31.77,119.33,28.39Z"/><path class="cls-1" d="M116.05,49.05l.06-.33c.59-3.36,1.14-6.79,1.65-10.18s.95-6.81,1.34-10.18l0-.25.26.05c.14,0,.28.05.44.06a4.61,4.61,0,0,0,.91,0c.15,0,.3,0,.48-.07l.18,0,.07.17c1.12,2.48,2.32,5,3.56,7.48s2.34,4.6,3.45,6.69c.45-.84.93-1.78,1.46-2.79.6-1.16,1.23-2.41,1.87-3.7l1.94-3.9c.65-1.31,1.28-2.57,1.87-3.79l.08-.16.18,0a4.48,4.48,0,0,0,1.34.06,4.81,4.81,0,0,0,.49-.07l.25,0,0,.25q.27,2.64.58,5.46c.21,1.84.42,3.71.65,5.55s.44,3.52.67,5.14.44,3,.64,4.21l.06.31-.32,0-.63-.06c-.39,0-.83,0-1.19,0l-.51,0-2.18.15,0-.24c-.06-.86-.13-1.91-.22-3.16s-.19-2.53-.29-3.85-.23-2.61-.38-3.85c-.11-.91-.21-1.71-.3-2.41-1.06,2.11-2.12,4.22-3.13,6.28-1.13,2.28-2.25,4.65-3.34,7L128,49h-.15a1.36,1.36,0,0,1-.29,0,.81.81,0,0,0-.35,0L127,49h-.15l-.06-.14c-1.06-2.3-2.17-4.61-3.3-6.88-1-2-2-4.13-3.1-6.22-.3,2.07-.54,4.19-.71,6.31-.19,2.38-.35,4.65-.47,6.75v.28l-.27-.06a5.94,5.94,0,0,0-2.49,0Zm18.74-15.11.11.74c.12.87.25,1.92.4,3.17s.27,2.55.38,3.87.2,2.61.29,3.86.15,2.11.2,2.93l1.73-.12.57,0c.36,0,.8,0,1.18.05l.35,0c-.19-1.12-.39-2.43-.6-3.91s-.45-3.36-.67-5.15-.44-3.71-.64-5.56-.39-3.54-.56-5.22l-.28,0a5.41,5.41,0,0,1-1.29,0c-.58,1.17-1.17,2.38-1.8,3.63l-1.94,3.9c-.64,1.29-1.27,2.54-1.87,3.7s-1.17,2.24-1.68,3.19l-.2.39-.21-.39c-1.18-2.2-2.41-4.59-3.66-7.09s-2.39-4.9-3.49-7.33l-.33,0a5.56,5.56,0,0,1-1,0l-.25,0c-.38,3.29-.82,6.64-1.31,10s-1,6.6-1.59,9.86a6.28,6.28,0,0,1,2.08,0c.12-2,.27-4.22.45-6.49s.47-4.77.83-7.09l.11-.72.33.65q1.74,3.48,3.43,6.89c1.11,2.22,2.19,4.49,3.23,6.74h0a1.39,1.39,0,0,1,.54,0h0c1.07-2.34,2.17-4.66,3.28-6.9s2.29-4.62,3.47-7Z"/><path class="cls-1" d="M146.12,36.5c0-1.58,0-3-.07-4.19s-.09-2.5-.15-3.83l2.56.08c.88,0,1.76.05,2.65.05l3.57,0c1,0,1.83-.05,2.36-.11L157,29a3,3,0,0,0,0,.62,3.8,3.8,0,0,0,0,.65c0,.16.06.35.09.56l-1.8-.11-1.9-.14-1.78-.11c-.57,0-1,0-1.43,0L150,32.18,150,33.91v3.26h1.92c.95,0,1.81,0,2.56-.07l2.35-.15a5.6,5.6,0,0,0-.12.69c0,.16,0,.33,0,.51s0,.34,0,.49a6.58,6.58,0,0,0,.12.67c-1.1-.12-2.26-.19-3.48-.22S151,39,150,39v6c0,.33,0,.64,0,.92s0,.57.06.87c1.13,0,2.31,0,3.55-.09s2.4-.16,3.5-.31l-.09.53a3.14,3.14,0,0,0-.05.67,4.08,4.08,0,0,0,.05.67c0,.18.06.34.09.49-.63,0-1.34,0-2.14-.07s-1.83-.06-3.08-.06c-1,0-1.84,0-2.5,0l-1.64,0-1.07.05-.76,0c.06-1.28.11-2.54.15-3.79s.07-2.66.07-4.24Z"/><path class="cls-1" d="M157.37,49h-.28q-.94,0-2.16-.06c-.79,0-1.82-.07-3.06-.07l-2.49,0-1.65,0-1.06,0c-.27,0-.53,0-.77,0h-.25v-.24c.06-1.28.11-2.54.16-3.79s.07-2.68.07-4.23V36.5c0-1.55,0-3-.07-4.18s-.1-2.5-.16-3.83v-.26h.26l2.56.09c.86,0,1.75,0,2.64,0,1.34,0,2.53,0,3.57,0s1.81-.05,2.34-.11l.3,0-.14.84a2.73,2.73,0,0,0,0,.58,4.51,4.51,0,0,0,0,.61c0,.17.06.35.09.57l0,.28-.28,0c-.57,0-1.17-.06-1.81-.11l-1.89-.13c-.63,0-1.22-.08-1.78-.11s-.86,0-1.2,0l-.12,1.52,0,1.73v3h1.68c.95,0,1.81,0,2.55-.06l2.34-.16.31,0L157,37a5,5,0,0,0-.11.67,3.93,3.93,0,0,0,0,.49,3.54,3.54,0,0,0,0,.47,5.35,5.35,0,0,0,.11.64l.06.32-.32,0c-1.09-.12-2.25-.19-3.46-.22s-2.17,0-3.1,0V45c0,.33,0,.63,0,.91s0,.42,0,.64c1.06,0,2.18,0,3.32-.09s2.39-.16,3.48-.31l.31,0-.14.85a3.07,3.07,0,0,0,0,.63,3.69,3.69,0,0,0,0,.63q0,.27.09.48Zm-5.5-.6c1.25,0,2.28,0,3.09.07s1.3.06,1.84.06l0-.21a3.57,3.57,0,0,1-.05-.71,3.78,3.78,0,0,1,.05-.73l0-.2c-1,.13-2.08.22-3.2.27S151.18,47,150,47h-.21l0-.21c0-.3-.05-.59-.07-.88s0-.59,0-.93v-6.2H150c1,0,2.13,0,3.35,0s2.18.09,3.19.19c0-.15-.05-.28-.06-.38a4,4,0,0,1,0-.51,4.78,4.78,0,0,1,0-.54c0-.11,0-.25.06-.41l-2,.14q-1.14.06-2.58.06h-2.15V33.91l0-1.74.16-2h.21c.39,0,.86,0,1.44.05s1.16.06,1.79.11l1.89.13,1.52.1c0-.1,0-.18-.05-.27a4.07,4.07,0,0,1-.05-.69,2.7,2.7,0,0,1,.06-.68l0-.21c-.52,0-1.22.07-2.08.08-1,0-2.23,0-3.57,0-.9,0-1.79,0-2.66,0l-2.31-.08c.06,1.25.11,2.44.15,3.58s.07,2.65.07,4.2v4.23c0,1.56,0,3-.07,4.25s-.09,2.35-.15,3.54l.5,0,1.08,0,1.65-.05Z"/><path class="cls-1" d="M163.28,36.5c0-1.55,0-2.94-.09-4.19s-.11-2.53-.17-3.83l1.09.08c.4,0,.84.05,1.31.05s1.24,0,1.92-.07,1.49-.06,2.41-.06q3.78,0,5.28,1.27a4.39,4.39,0,0,1,1.49,3.54A4.77,4.77,0,0,1,175.05,37a7.37,7.37,0,0,1-3.48,1.8c.45.72,1,1.5,1.52,2.37s1.15,1.73,1.76,2.63l1.81,2.63c.59.86,1.14,1.65,1.65,2.36l-1.23-.09c-.4,0-.8,0-1.18,0s-.83,0-1.25,0l-1.2.09-1.36-2.21c-.49-.78-1-1.6-1.5-2.43s-1-1.65-1.53-2.47l-1.5-2.34h-.49V43c0,2,.09,3.93.27,5.8l-1-.09c-.35,0-.72,0-1.11,0s-.85,0-1.2,0l-1,.09.08-1.87c.06-1,.11-1.91.14-2.88s0-2.06,0-3.28Zm3.79,1.56a2.13,2.13,0,0,0,.49,0h.54a5,5,0,0,0,3.14-1,3.83,3.83,0,0,0,1.27-3.25,5.37,5.37,0,0,0-.31-2,2.81,2.81,0,0,0-.87-1.18,3.06,3.06,0,0,0-1.34-.56,11.22,11.22,0,0,0-1.71-.13h-.54a2.58,2.58,0,0,0-.53.05c0,1.27-.06,2.6-.09,4S167.07,36.72,167.07,38.06Z"/><path class="cls-1" d="M178.79,49l-1.73-.13a17.33,17.33,0,0,0-2.39,0l-1.2.09h-.15l-.07-.12c-.42-.68-.87-1.42-1.36-2.2s-1-1.6-1.5-2.44-1-1.65-1.53-2.47l-1.43-2.23h-.12V43c0,2,.09,3.92.26,5.78l0,.28-.28,0-1-.09a15.75,15.75,0,0,0-2.28,0L163,49l-.27,0,.1-2.14c.06-1,.1-1.91.13-2.88s.05-2.06.05-3.27V36.5c0-1.53,0-2.94-.09-4.18s-.12-2.53-.18-3.83v-.27l.27,0,1.08.09a23,23,0,0,0,3.2,0c.68,0,1.5-.07,2.43-.07,2.57,0,4.4.45,5.43,1.33a4.63,4.63,0,0,1,1.58,3.72,5,5,0,0,1-1.55,3.85A7.5,7.5,0,0,1,172,38.92c.4.64.84,1.34,1.34,2.09s1.14,1.72,1.76,2.62,1.21,1.77,1.8,2.63,1.14,1.65,1.65,2.36Zm-11.95-10h.85l1.56,2.45c.52.82,1,1.65,1.54,2.48l1.5,2.43c.46.74.89,1.43,1.28,2.08l1.06-.07a15.67,15.67,0,0,1,2.47,0l.73.05c-.43-.6-.88-1.26-1.37-2l-1.8-2.63q-.93-1.36-1.77-2.64c-.56-.86-1.07-1.65-1.51-2.36l-.18-.28.32-.08a7.13,7.13,0,0,0,3.37-1.74,4.56,4.56,0,0,0,1.4-3.51,4.22,4.22,0,0,0-1.41-3.37c-.95-.8-2.68-1.21-5.13-1.21-.92,0-1.72,0-2.39.07a24,24,0,0,1-3.27,0l-.83-.07c.06,1.22.11,2.41.17,3.57s.09,2.66.09,4.2v4.23c0,1.21,0,2.31-.05,3.29s-.07,1.94-.13,2.88l-.08,1.6.72-.06a14.17,14.17,0,0,1,2.35,0l.75.06c-.16-1.78-.24-3.64-.24-5.54Zm1.26-.73h-.54a2.47,2.47,0,0,1-.54-.05l-.18,0v-.18c0-1.34,0-2.71,0-4.06s.06-2.69.09-4v-.19l.18,0a2.56,2.56,0,0,1,.58,0h.54a10.57,10.57,0,0,1,1.75.13,3.23,3.23,0,0,1,1.44.61,3,3,0,0,1,.95,1.27,5.85,5.85,0,0,1,.33,2.1,4.08,4.08,0,0,1-1.37,3.44A5.24,5.24,0,0,1,168.1,38.34Zm-.79-.48h.79a4.77,4.77,0,0,0,3-.93,3.68,3.68,0,0,0,1.18-3.07A5.08,5.08,0,0,0,172,32a2.56,2.56,0,0,0-.79-1.08,2.77,2.77,0,0,0-1.24-.51,9.6,9.6,0,0,0-1.67-.13h-.84c0,1.22-.06,2.47-.09,3.77S167.31,36.59,167.31,37.86Z"/><path class="cls-1" d="M183.52,36.5c0-1.55,0-2.94-.06-4.19s-.1-2.53-.16-3.83l1,.08c.34,0,.73.05,1.18.05s.8,0,1.16-.05l1-.08c-.09,1-.15,1.93-.17,2.87s0,1.93,0,3V43c0,1,0,2,0,3s.08,1.88.17,2.83l-1-.09c-.36,0-.74,0-1.16,0s-.84,0-1.18,0l-1,.09.09-1.87c.06-1,.09-1.92.11-2.9s0-2.07,0-3.26Z"/><path class="cls-1" d="M183.05,49l.1-2.14c.06-.94.1-1.91.12-2.89s0-2.07,0-3.26V36.5c0-1.54,0-3-.07-4.18s-.1-2.53-.15-3.83l0-.27.27,0,1,.09a14.7,14.7,0,0,0,2.3,0l1-.09.28,0,0,.28c-.09,1-.15,1.94-.18,2.86s0,1.92,0,3V43c0,1,0,2,0,3s.09,1.87.18,2.82l0,.28-.28,0-1-.09a16,16,0,0,0-2.3,0l-1,.09Zm2.39-.63c.42,0,.82,0,1.18,0l.74.06c-.07-.87-.12-1.73-.15-2.56s0-1.93,0-3V34.32c0-1,0-2,0-3s.08-1.71.15-2.61l-.74.07a15.75,15.75,0,0,1-2.38,0l-.69-.06c0,1.21.1,2.4.14,3.56s.07,2.65.07,4.2v4.23c0,1.19,0,2.28,0,3.26s0,2-.11,2.91l-.07,1.6.69-.06C184.58,48.41,185,48.39,185.44,48.39Z"/><path class="cls-1" d="M210.85,45.46a10.46,10.46,0,0,0-.38,1.16,6.71,6.71,0,0,0-.2,1.16,14.17,14.17,0,0,1-2.54,1,12.89,12.89,0,0,1-3.43.42,13.16,13.16,0,0,1-4.55-.74,9.66,9.66,0,0,1-3.41-2.07,9,9,0,0,1-2.16-3.16,10.42,10.42,0,0,1-.76-4.06,12.39,12.39,0,0,1,.91-5,9.46,9.46,0,0,1,2.48-3.44,10.08,10.08,0,0,1,3.65-2,15.08,15.08,0,0,1,4.46-.65,12.62,12.62,0,0,1,3.34.45,16.53,16.53,0,0,1,2.77,1,9.29,9.29,0,0,0-.63,2.81l-.35,0a8.66,8.66,0,0,0-2.28-1.91,5.77,5.77,0,0,0-2.94-.72,6.63,6.63,0,0,0-2.61.54A6.52,6.52,0,0,0,200,31.91a8.4,8.4,0,0,0-1.61,2.83,12.36,12.36,0,0,0-.6,4.08,11.17,11.17,0,0,0,.63,4A7.57,7.57,0,0,0,200,45.48,6.32,6.32,0,0,0,202.36,47a7.53,7.53,0,0,0,2.69.49,6.9,6.9,0,0,0,3-.69,11.11,11.11,0,0,0,2.48-1.58Z"/><path class="cls-1" d="M204.3,49.39a13.38,13.38,0,0,1-4.63-.75,9.82,9.82,0,0,1-3.49-2.12A9.32,9.32,0,0,1,194,43.28a10.69,10.69,0,0,1-.78-4.15,12.71,12.71,0,0,1,.94-5.09,9.64,9.64,0,0,1,2.53-3.51,10.43,10.43,0,0,1,3.74-2,15.27,15.27,0,0,1,4.53-.66,13.07,13.07,0,0,1,3.4.45,16.66,16.66,0,0,1,2.81,1l.19.09-.07.21a8.77,8.77,0,0,0-.61,2.73l0,.2-.67.08-.08-.09a8.4,8.4,0,0,0-2.21-1.87,5.7,5.7,0,0,0-2.83-.68,6.52,6.52,0,0,0-2.52.51,6.41,6.41,0,0,0-2.19,1.59,8.22,8.22,0,0,0-1.55,2.76,12.18,12.18,0,0,0-.59,4,10.86,10.86,0,0,0,.61,3.88,7.49,7.49,0,0,0,1.59,2.62,6.16,6.16,0,0,0,2.26,1.48,7,7,0,0,0,5.52-.19,10.6,10.6,0,0,0,2.42-1.55l.14-.12.61.43-.06.17a10.08,10.08,0,0,0-.37,1.14,6.27,6.27,0,0,0-.2,1.12v.13l-.11.06a13.59,13.59,0,0,1-2.59,1A12.93,12.93,0,0,1,204.3,49.39Zm.62-21.08a14.66,14.66,0,0,0-4.39.64A9.87,9.87,0,0,0,197,30.88a9.16,9.16,0,0,0-2.41,3.35,12.15,12.15,0,0,0-.9,4.9,10.36,10.36,0,0,0,.74,4,8.91,8.91,0,0,0,2.11,3.08,9.39,9.39,0,0,0,3.33,2,12.93,12.93,0,0,0,4.47.73,12.43,12.43,0,0,0,3.37-.42,14,14,0,0,0,2.38-.88,6.48,6.48,0,0,1,.19-1.07,9.16,9.16,0,0,1,.33-1l0,0a11.34,11.34,0,0,1-2.39,1.5,7.53,7.53,0,0,1-5.89.21,6.62,6.62,0,0,1-2.42-1.59,7.83,7.83,0,0,1-1.7-2.78,11.36,11.36,0,0,1-.64-4,12.62,12.62,0,0,1,.61-4.16,8.59,8.59,0,0,1,1.65-2.91A6.79,6.79,0,0,1,202.13,30a7,7,0,0,1,2.7-.55,6.13,6.13,0,0,1,3.06.74,8.64,8.64,0,0,1,2.25,1.88h0a9.86,9.86,0,0,1,.55-2.48,16.41,16.41,0,0,0-2.53-.87A12.58,12.58,0,0,0,204.92,28.31Z"/><path class="cls-1" d="M222.31,28.25l.46.09a2.19,2.19,0,0,0,.47.05,2,2,0,0,0,.43-.05l.46-.09q.94,2.55,2.05,5.46t2.26,5.73c.75,1.87,1.48,3.63,2.18,5.26s1.32,3,1.85,4.06l-.71-.07-.67,0a3.09,3.09,0,0,0-.58,0H230l-2.05.13c-.32-1-.69-2.07-1.09-3.19s-.81-2.22-1.23-3.32c-.32,0-.63,0-.93,0h-5.22a7.26,7.26,0,0,0-.8,0,67.4,67.4,0,0,0-2.23,6.51l-.67-.09a5.38,5.38,0,0,0-1.31,0l-.69.09c.44-1,1-2.38,1.71-4s1.44-3.39,2.23-5.26,1.58-3.79,2.39-5.75ZM225,40.65l-2.81-7.14c-.51,1.16-1,2.34-1.47,3.55s-.94,2.4-1.39,3.59Z"/><path class="cls-1" d="M213.37,49l.16-.37c.45-1,1-2.38,1.72-4s1.44-3.38,2.23-5.25,1.58-3.79,2.38-5.75l2.23-5.49.07-.17.19,0,.47.09a1.91,1.91,0,0,0,.79,0l.48-.09.2,0,.06.18c.64,1.72,1.33,3.55,2.05,5.46s1.49,3.84,2.25,5.72,1.49,3.64,2.19,5.26,1.3,3,1.84,4l.19.39-.43,0-.7-.06c-.2,0-.42,0-.65,0a3.45,3.45,0,0,0-.58,0H230l-2.21.14-.06-.17c-.33-1-.7-2.1-1.09-3.18s-.77-2.13-1.17-3.18l-.77,0h-5.22l-.63,0a63.15,63.15,0,0,0-2.17,6.35l-.06.2-.2,0-.67-.09a4.74,4.74,0,0,0-1.25,0ZM219.45,42h5.22c.3,0,.62,0,1,.05h.14l0,.14c.42,1.1.83,2.21,1.23,3.32s.72,2,1,3l1.87-.12h.55a3.44,3.44,0,0,1,.62,0c.2,0,.43,0,.64,0l.3,0c-.49-1-1-2.25-1.67-3.69-.69-1.62-1.43-3.39-2.18-5.26s-1.53-3.82-2.25-5.73-1.37-3.62-2-5.28l-.26.05a2.58,2.58,0,0,1-1,0l-.27-.05q-1,2.46-2.16,5.3c-.8,2-1.59,3.88-2.38,5.76s-1.53,3.62-2.23,5.26l-1.56,3.63.29,0a4.9,4.9,0,0,1,1.38,0l.46.06c.56-2,1.29-4.09,2.18-6.34l0-.13h.15A7.52,7.52,0,0,1,219.45,42Zm5.92-1.09H219l.11-.32c.45-1.19.92-2.4,1.39-3.59s1-2.39,1.47-3.55l.23-.52Zm-5.67-.47h5l-2.47-6.28c-.43,1-.85,2-1.25,3S220.11,39.32,219.7,40.41Z"/><path class="cls-1" d="M255.16,48.85l-.47-.07-.47,0-.46,0-.38.07q-3.21-3.75-6.56-7.38T240,34.09c0,.33-.05.69-.05,1.07V39q0,4.19.05,6.53c0,1.56.07,2.63.13,3.23a6.25,6.25,0,0,0-1.25-.13,6.66,6.66,0,0,0-1.33.13q0-.36.15-1.83c.08-1,.15-2.15.23-3.5s.13-2.79.17-4.32.07-3,.07-4.35,0-2.7,0-3.74S238,29.1,238,28.39l.51.06a4.12,4.12,0,0,0,.51,0l.54,0a4.78,4.78,0,0,0,.53-.06q3.21,3.69,6.69,7.44t6.6,7v-6.1q0-1.79,0-3.39c0-1.07,0-2-.06-2.9s-.06-1.53-.09-2a5.88,5.88,0,0,0,1.2.13,6.63,6.63,0,0,0,1.25-.13c-.12,1.66-.21,3.33-.29,5s-.11,3.19-.11,4.53c0,.83-.05,1.69-.07,2.58s0,1.81,0,2.76Z"/><path class="cls-1" d="M255.4,49.13l-.28-.05-.45-.07a6.61,6.61,0,0,0-.89,0l-.35.07-.14,0L253.2,49c-2.13-2.48-4.33-5-6.55-7.37s-4.28-4.63-6.49-7c0,.16,0,.33,0,.51V39c0,2.78,0,5,0,6.52s.08,2.63.14,3.22l0,.31-.31-.06a6,6,0,0,0-2.5,0l-.32.06,0-.32c0-.16.07-.61.16-1.82.07-1,.15-2.16.22-3.49s.14-2.82.18-4.32.07-3,.07-4.34,0-2.68-.05-3.74-.06-1.91-.09-2.62v-.29l.29,0a4.44,4.44,0,0,0,.49.07,5.68,5.68,0,0,0,1,0,4.46,4.46,0,0,0,.51-.07l.13,0,.09.1c2.12,2.45,4.37,4.95,6.68,7.44s4.26,4.57,6.19,6.61V36.77c0-1.19,0-2.32,0-3.39s0-2-.07-2.89-.06-1.53-.09-2v-.31l.3.07a5.48,5.48,0,0,0,2.35,0l.31-.07,0,.31c-.12,1.66-.22,3.34-.29,5s-.12,3.19-.12,4.52q0,1.24-.06,2.58c0,.9,0,1.82,0,2.76ZM239.77,33.55l.36.38c2.34,2.49,4.65,5,6.87,7.38s4.36,4.83,6.46,7.28l.27,0a5.46,5.46,0,0,1,1,0l.21,0V43.36c0-1,0-1.87,0-2.76s0-1.76.06-2.59c0-1.33,0-2.85.12-4.53s.16-3.16.27-4.72a5.8,5.8,0,0,1-2,0c0,.45.05,1,.07,1.71,0,.87,0,1.83.07,2.91s0,2.2,0,3.39v6.69l-.4-.42c-2.05-2.17-4.27-4.54-6.6-7s-4.51-4.93-6.61-7.35l-.42.05a6.61,6.61,0,0,1-1.09,0l-.25,0c0,.66,0,1.44.08,2.35s.05,2.32.05,3.75,0,2.82-.07,4.35-.1,3-.18,4.33S238,46,237.9,47c-.06.69-.1,1.2-.13,1.52a6.77,6.77,0,0,1,2.06,0c0-.63-.08-1.6-.11-2.94,0-1.55,0-3.74,0-6.53V35.16a9.29,9.29,0,0,1,0-1.09Z"/><path class="cls-1" d="M261.31,38.64a10.87,10.87,0,0,1,.8-4.17,10,10,0,0,1,2.28-3.36,10.22,10.22,0,0,1,3.54-2.23,12.58,12.58,0,0,1,4.62-.81,14.11,14.11,0,0,1,4.36.67,10,10,0,0,1,3.55,2,9.23,9.23,0,0,1,2.36,3.3,11.24,11.24,0,0,1,.87,4.56,10.37,10.37,0,0,1-.85,4.22,10,10,0,0,1-2.34,3.34A10.84,10.84,0,0,1,277,48.36a12.23,12.23,0,0,1-4.46.8,15.2,15.2,0,0,1-4.43-.62,9.8,9.8,0,0,1-3.55-1.94,8.93,8.93,0,0,1-2.36-3.3A11.71,11.71,0,0,1,261.31,38.64Zm18-.49q0-4.14-1.92-6.33a6.21,6.21,0,0,0-4.9-2.19,6.11,6.11,0,0,0-2.87.67,6.34,6.34,0,0,0-2.17,1.9,9.26,9.26,0,0,0-1.36,2.92,13.94,13.94,0,0,0-.46,3.7,13.13,13.13,0,0,0,.53,4,7.42,7.42,0,0,0,1.45,2.68A5.44,5.44,0,0,0,269.74,47a7.08,7.08,0,0,0,2.58.47A6.53,6.53,0,0,0,275,47a6,6,0,0,0,2.23-1.71,8.65,8.65,0,0,0,1.51-2.92A13.67,13.67,0,0,0,279.32,38.15Z"/><path class="cls-1" d="M272.5,49.39a15.3,15.3,0,0,1-4.5-.63,9.8,9.8,0,0,1-3.63-2,9.11,9.11,0,0,1-2.43-3.38,12.13,12.13,0,0,1-.86-4.75,11,11,0,0,1,.82-4.26,10.15,10.15,0,0,1,2.32-3.44,10.63,10.63,0,0,1,3.63-2.28,12.81,12.81,0,0,1,4.7-.82,14.38,14.38,0,0,1,4.44.68,10.18,10.18,0,0,1,3.62,2A9.55,9.55,0,0,1,283,33.93a11.6,11.6,0,0,1,.88,4.66,10.8,10.8,0,0,1-.86,4.31,10.27,10.27,0,0,1-2.4,3.42A11.33,11.33,0,0,1,277,48.58,12.42,12.42,0,0,1,272.5,49.39Zm.05-21.08a12.31,12.31,0,0,0-4.53.79,10.23,10.23,0,0,0-3.47,2.17,9.91,9.91,0,0,0-2.22,3.29,10.63,10.63,0,0,0-.78,4.08,11.66,11.66,0,0,0,.82,4.57,8.89,8.89,0,0,0,2.3,3.21,9.55,9.55,0,0,0,3.46,1.89,14.84,14.84,0,0,0,4.37.62,12,12,0,0,0,4.37-.79A10.67,10.67,0,0,0,280.34,46a9.85,9.85,0,0,0,2.29-3.27,10.18,10.18,0,0,0,.83-4.12,11.17,11.17,0,0,0-.85-4.47,9.2,9.2,0,0,0-2.31-3.22A9.66,9.66,0,0,0,276.84,29,13.71,13.71,0,0,0,272.55,28.31Zm-.23,19.44a7.4,7.4,0,0,1-2.67-.49,5.78,5.78,0,0,1-2.21-1.55A7.8,7.8,0,0,1,266,43a13.37,13.37,0,0,1-.55-4.13,14.1,14.1,0,0,1,.48-3.77,9.48,9.48,0,0,1,1.39-3,6.57,6.57,0,0,1,2.25-2,6.21,6.21,0,0,1,3-.7,6.49,6.49,0,0,1,5.08,2.26,9.61,9.61,0,0,1,2,6.49,14.08,14.08,0,0,1-.57,4.24,9,9,0,0,1-1.56,3,6.4,6.4,0,0,1-2.32,1.78A6.94,6.94,0,0,1,272.32,47.75Zm.18-17.88a5.83,5.83,0,0,0-2.77.64,6,6,0,0,0-2.08,1.83,8.76,8.76,0,0,0-1.32,2.84,13.49,13.49,0,0,0-.46,3.64,13.34,13.34,0,0,0,.52,4,7.23,7.23,0,0,0,1.4,2.59,5.21,5.21,0,0,0,2,1.43,6.86,6.86,0,0,0,2.5.46,6.59,6.59,0,0,0,2.61-.54,6,6,0,0,0,2.14-1.65,8.55,8.55,0,0,0,1.47-2.84,13.84,13.84,0,0,0,.55-4.1A9.18,9.18,0,0,0,277.23,32,6.06,6.06,0,0,0,272.5,29.87Z"/><rect class="cls-1" y="55.69" width="290" height="2.66"/><path class="cls-1" d="M15.52,19.54A6.58,6.58,0,0,0,19.71,18l.67.83A7.7,7.7,0,0,1,8.13,10.71a7.66,7.66,0,0,1,12-3.83l-.65.83a6.6,6.6,0,1,0-4.06,11.81Z"/><path class="cls-1" d="M15.51,20.85a8,8,0,0,1-4.4-1.34A7.9,7.9,0,1,1,20.32,6.69l.19.15L19.57,8l-.19-.14a6.36,6.36,0,1,0-3.91,11.38l.1,0a6.33,6.33,0,0,0,4-1.45l.18-.15,1,1.2-.18.14A7.88,7.88,0,0,1,15.51,20.85ZM15.45,5.49a7.44,7.44,0,1,0,4.6,13.34l-.38-.47a6.84,6.84,0,0,1-4.15,1.41l-.1,0A6.84,6.84,0,1,1,19.48,7.39l.37-.47A7.51,7.51,0,0,0,15.45,5.49Z"/><path class="cls-1" d="M53,12.92a7.66,7.66,0,1,1,7.66,7.66A7.65,7.65,0,0,1,53,12.92Zm1.06,0a6.6,6.6,0,1,0,6.6-6.6A6.59,6.59,0,0,0,54,12.92Z"/><path class="cls-1" d="M60.61,20.81a7.9,7.9,0,1,1,7.89-7.89A7.9,7.9,0,0,1,60.61,20.81Zm0-15.32A7.43,7.43,0,1,0,68,12.92,7.43,7.43,0,0,0,60.61,5.49Zm0,14.26a6.84,6.84,0,1,1,6.84-6.83A6.83,6.83,0,0,1,60.61,19.75Zm0-13.2A6.37,6.37,0,1,0,67,12.92,6.37,6.37,0,0,0,60.61,6.55Z"/><path class="cls-1" d="M110.21,20.6H102V5.26h1.06V19.52h7.1Z"/><path class="cls-1" d="M110.45,20.83H101.8V5h1.53V19.28h7.09Zm-8.18-.47H110v-.61h-7.1V5.49h-.59Z"/><path class="cls-1" d="M153.23,20.62h-9.3V5.28h9.3V6.34H145v8h7.21v1.06H145v4.17h8.22Z"/><path class="cls-1" d="M153.46,20.86h-9.77V5.05h9.77V6.57h-8.22v7.49h7.21v1.52h-7.21v3.7h8.22Zm-9.3-.47H153v-.64h-8.23V15.11H152v-.58h-7.21V6.1H153V5.51h-8.84Z"/><path class="cls-1" d="M194.65,20.58a7.66,7.66,0,1,1,4.73-13.7l-.65.83a6.61,6.61,0,1,0-.09,10.46V13.43h-5.29v-1h6.37v6.3l-.2.16a7.72,7.72,0,0,1-4.89,1.74Z"/><path class="cls-1" d="M194.65,20.81h0a7.9,7.9,0,0,1,0-15.79,8,8,0,0,1,4.88,1.67l.18.15L198.77,8l-.19-.14a6.37,6.37,0,1,0-.18,10.15V13.67h-5.29V12.14H200V18.8l-.3.23a8,8,0,0,1-5,1.78Zm0-15.32a7.43,7.43,0,1,0,4.72,13.17l.12-.09v-6h-5.91v.59h5.29v5.08l-.09.07a6.82,6.82,0,1,1-.09-11l.36-.47A7.49,7.49,0,0,0,194.65,5.49Z"/><path class="cls-1" d="M233.44,20.58V5.23h1.06V20.58Z"/><path class="cls-1" d="M234.73,20.81H233.2V5h1.53Zm-1.06-.47h.59V5.47h-.59Z"/><path class="cls-1" d="M268.24,12.92a7.66,7.66,0,1,1,7.66,7.66A7.65,7.65,0,0,1,268.24,12.92Zm1.06,0a6.6,6.6,0,1,0,6.6-6.6A6.59,6.59,0,0,0,269.3,12.92Z"/><path class="cls-1" d="M275.9,20.81a7.9,7.9,0,1,1,7.89-7.89A7.9,7.9,0,0,1,275.9,20.81Zm0-15.32a7.43,7.43,0,1,0,7.42,7.43A7.43,7.43,0,0,0,275.9,5.49Zm0,14.26a6.84,6.84,0,1,1,6.83-6.83A6.84,6.84,0,0,1,275.9,19.75Zm0-13.2a6.37,6.37,0,1,0,6.36,6.37A6.38,6.38,0,0,0,275.9,6.55Z"/><path class="cls-1" d="M85.7,72.66a1.93,1.93,0,0,0,.94-3.6l-2-1.19a1.9,1.9,0,0,1,1-3.53h.2a1.88,1.88,0,0,1,1.63.93l-.54.32A1.26,1.26,0,0,0,85.75,65h-.2a1.26,1.26,0,0,0-1.22.93,1.28,1.28,0,0,0,.59,1.43l2,1.19a2.56,2.56,0,0,1-1.29,4.77h0a2.55,2.55,0,0,1-2-1l.5-.38a1.92,1.92,0,0,0,1.54.78Z"/><path class="cls-1" d="M85.68,73.52a2.79,2.79,0,0,1-2.25-1.12l-.14-.18.88-.67.14.19a1.7,1.7,0,0,0,1.35.68h0a1.69,1.69,0,0,0,.83-3.16l-2-1.18a2.14,2.14,0,0,1,1.07-4h.2a2.15,2.15,0,0,1,1.83,1.05l.12.21-.94.55-.12-.2a1,1,0,0,0-.89-.51h-.2a1,1,0,0,0-1,.76A1,1,0,0,0,85,67.13l2,1.18a2.79,2.79,0,0,1-1.41,5.21ZM84,72.3a2.29,2.29,0,0,0,1.7.75,2.32,2.32,0,0,0,1.19-4.33l-2-1.18a1.53,1.53,0,0,1-.71-1.7,1.5,1.5,0,0,1,1.45-1.1h.2a1.51,1.51,0,0,1,1.16.54L87,65.2a1.66,1.66,0,0,0-1.29-.63h-.2a1.67,1.67,0,0,0-.84,3.1l2.05,1.18a2.16,2.16,0,0,1-1.06,4h0a2.14,2.14,0,0,1-1.57-.69Z"/><path class="cls-1" d="M95,68.81a4.47,4.47,0,1,1,4.46,4.46A4.46,4.46,0,0,1,95,68.81Zm.61,0A3.85,3.85,0,1,0,99.49,65,3.86,3.86,0,0,0,95.64,68.81Z"/><path class="cls-1" d="M99.49,73.51a4.71,4.71,0,1,1,4.71-4.7A4.71,4.71,0,0,1,99.49,73.51Zm0-8.94a4.24,4.24,0,1,0,4.24,4.24A4.24,4.24,0,0,0,99.49,64.57Zm0,8.32a4.09,4.09,0,1,1,4.09-4.08A4.08,4.08,0,0,1,99.49,72.89Zm0-7.7a3.62,3.62,0,1,0,3.62,3.62A3.62,3.62,0,0,0,99.49,65.19Z"/><path class="cls-1" d="M115.54,73.29h-4.77v-9h.61v8.32h4.14Z"/><path class="cls-1" d="M115.78,73.52h-5.25V64.1h1.09v8.32h4.13ZM111,73.05h4.3v-.16h-4.14V64.57H111Z"/><path class="cls-1" d="M121,68.81a4.47,4.47,0,1,1,4.47,4.46A4.47,4.47,0,0,1,121,68.81Zm.62,0A3.85,3.85,0,1,0,125.47,65,3.85,3.85,0,0,0,121.62,68.81Z"/><path class="cls-1" d="M125.47,73.51a4.71,4.71,0,1,1,4.7-4.7A4.71,4.71,0,0,1,125.47,73.51Zm0-8.94a4.24,4.24,0,1,0,4.23,4.24A4.24,4.24,0,0,0,125.47,64.57Zm0,8.32a4.09,4.09,0,1,1,4.08-4.08A4.08,4.08,0,0,1,125.47,72.89Zm0-7.7a3.62,3.62,0,1,0,3.62,3.62A3.63,3.63,0,0,0,125.47,65.19Z"/><path class="cls-1" d="M154.44,67.28a2.94,2.94,0,0,1-2.94,3h-2.67v3h-.62V64.33h3.29a2.93,2.93,0,0,1,2.94,2.94Zm-2.94,2.34a2.33,2.33,0,0,0,0-4.65h-2.67v4.64h2.67Z"/><path class="cls-1" d="M149.07,73.51H148V64.09h3.52a3.19,3.19,0,0,1,3.18,3.18h0a3.19,3.19,0,0,1-3.18,3.18h-2.43Zm-.62-.47h.15V70h2.9a2.71,2.71,0,0,0,2.71-2.71h0a2.72,2.72,0,0,0-2.71-2.71h-3.05Zm3.05-3.18-2.9,0v-5.1h2.9a2.56,2.56,0,0,1,0,5.12Zm-2.43-.49h2.66a2.09,2.09,0,0,0-.23-4.17h-2.43Z"/><path class="cls-1" d="M161.23,73.27V64.33h3.29a2.95,2.95,0,0,1,.43,5.86l2.36,3.08h-.79l-2.33-3h-2.34v3Zm.62-3.66h2.67a2.33,2.33,0,1,0,0-4.65h-2.67Z"/><path class="cls-1" d="M167.78,73.51H166.4l-2.32-3.05h-2v3.05H161V64.09h3.52a3.18,3.18,0,0,1,.84,6.25ZM166.63,73h.2l-2.31-3,.4-.06a2.7,2.7,0,0,0,2.3-2.87,2.74,2.74,0,0,0-2.7-2.52h-3.05V73h.15V70h2.69Zm-2.11-3.2h-2.9V64.72h2.9a2.56,2.56,0,0,1,0,5.12Zm-2.43-.47h2.43a2.09,2.09,0,0,0,0-4.18h-2.43Z"/><path class="cls-1" d="M179.68,73.3h-5.42v-9h5.42V65h-4.79v4.64h4.2v.62h-4.2v2.43h4.79Z"/><path class="cls-1" d="M179.92,73.53H174V64.12h5.9V65.2h-4.8v4.17h4.21v1.09h-4.21v2h4.8Zm-5.43-.46h5v-.18h-4.8V70h4.21v-.15h-4.21v-5.1h4.8v-.15h-5Z"/><path class="cls-1" d="M192.7,67.28a2.94,2.94,0,0,1-2.94,3h-2.67v3h-.61V64.33h3.28a2.93,2.93,0,0,1,2.94,2.94Zm-2.94,2.34a2.33,2.33,0,1,0,0-4.65h-2.67v4.64h2.67Z"/><path class="cls-1" d="M187.33,73.51h-1.09V64.09h3.52a3.19,3.19,0,0,1,3.18,3.18h0a3.19,3.19,0,0,1-3.18,3.18h-2.43Zm-.62-.47h.15V70h2.9a2.71,2.71,0,0,0,2.71-2.71h0a2.72,2.72,0,0,0-2.71-2.71h-3Zm3-3.18-2.9,0v-5.1h2.9a2.56,2.56,0,0,1,0,5.12Zm-2.43-.49H190a2.09,2.09,0,0,0-.23-4.17h-2.43Z"/><path class="cls-1" d="M197.53,73.27l3.66-9,3.63,9h-.67l-.78-1.93H199l-.78,1.93Zm1.7-2.55h3.89l-1.93-4.82Z"/><path class="cls-1" d="M205.16,73.51H204l-.78-1.93h-4.07l-.79,1.93h-1.17l4-9.9Zm-.85-.47h.16l-3.28-8.18L197.87,73H198l.79-1.93h4.7ZM203.47,71h-4.58l2.3-5.69Zm-3.89-.47h3.2l-1.59-4Z"/></svg>