<svg width="505" height="505" viewBox="0 0 505 505" fill="none" xmlns="http://www.w3.org/2000/svg">
<g clip-path="url(#clip0_302_1773)">
<path d="M504.63 252.31C504.63 112.96 391.66 0 252.31 0C112.96 0 0 112.96 0 252.31C0 331.33 36.33 401.85 93.2 448.12C95.87 418.78 105.42 392.34 122.4 368.61C140.04 343.95 163.01 325.85 191.31 313.63C158.9 290.31 141.23 259.56 141.1 219.81C141 189.36 152.13 163.2 173.52 141.63C216.69 98.09 287.06 97.75 330.44 140.94C355.44 165.83 366.47 196.29 363.04 231.31C359.63 266.14 342.26 293.22 313.63 313.34C371.24 340.57 403.97 384.95 411.65 447.96C468.4 401.69 504.65 331.24 504.65 252.31H504.63Z" fill="white"/>
<path d="M197.25 343.95C149.51 366.01 118.65 418.06 122.9 468.94C160.74 491.59 205 504.63 252.31 504.63C299.62 504.63 343.63 491.67 381.39 469.14C381.25 459.07 381.63 448.84 379.9 439.01C364.96 354.49 275.21 307.93 197.25 343.95Z" fill="white"/>
<path d="M252.41 138.78C207.58 138.67 171.06 175.16 171.01 220.09C170.96 265.09 207.23 301.45 252.22 301.49C297.22 301.54 333.56 265.27 333.61 220.27C333.66 175.31 297.37 138.89 252.4 138.78H252.41Z" fill="white"/>
</g>
<defs>
<clipPath id="clip0_302_1773">
<rect width="504.63" height="504.63" fill="white"/>
</clipPath>
</defs>
</svg>
